<?xml version="1.0" standalone="no"?>
<!DOCTYPE svg PUBLIC "-//W3C//DTD SVG 1.1//EN" "http://www.w3.org/Graphics/SVG/1.1/DTD/svg11.dtd" >
<svg>
<metadata>
Created by FontForge 20090914 at Fri Jun 28 08:28:40 2013
 By www-data
 The digitally encoded machine readable outline data for producing the Typefaces 
 provided as part of your laser printer is copyrighted (c) 1990, 1991, 2002 Heidelberger Druckmaschinen AG. 
 All rights reserved. This data is the property of Heidelberger Druckmaschinen AG, 
 and may not be reproduced, used, displayed, modified, disclosed or transferred 
 without the express written approval of Heidelberger Druckmaschinen AG. 
</metadata>
<defs>
<font id="HelveticaRoundedLTStd-BdCn" horiz-adv-x="240" >
  <font-face 
    font-family="Helvetica Rounded LT Std"
    font-weight="700"
    font-stretch="condensed"
    units-per-em="1000"
    panose-1="2 15 7 6 3 7 3 4 2 4"
    ascent="733"
    descent="-267"
    x-height="541"
    cap-height="733"
    bbox="-110 -216 990 965"
    underline-thickness="50"
    underline-position="-50"
    stemh="96"
    stemv="122"
    unicode-range="U+0020-U+FB02"
  />
<missing-glyph horiz-adv-x="500" 
d="M0 0v700h500v-700h-500zM250 395l170 255h-340zM280 350l170 -255v510zM80 50h340l-170 255zM50 605v-510l170 255z" />
    <glyph glyph-name="fi" unicode="fi" horiz-adv-x="500" 
d="M319 60v421c0 50 24 73 61 73s61 -23 61 -73v-421c0 -50 -24 -73 -61 -73s-61 23 -61 73zM310 667c0 39 31 70 70 70s70 -31 70 -70s-31 -70 -70 -70s-70 31 -70 70zM67 60v390h-13c-36 0 -54 12 -54 45c0 34 18 46 54 46h13v72c0 92 43 120 134 120c40 0 61 -16 61 -54
c0 -24 -12 -41 -37 -42c-30 -1 -36 -14 -36 -46v-50h19c36 0 54 -12 54 -46c0 -33 -18 -45 -54 -45h-19v-390c0 -50 -24 -73 -61 -73s-61 23 -61 73z" />
    <glyph glyph-name="fl" unicode="fl" horiz-adv-x="500" 
d="M319 60v600c0 50 24 73 61 73s61 -23 61 -73v-600c0 -50 -24 -73 -61 -73s-61 23 -61 73zM67 60v390h-13c-36 0 -54 12 -54 45c0 34 18 46 54 46h13v72c0 92 43 120 134 120c40 0 61 -16 61 -54c0 -24 -12 -41 -37 -42c-30 -1 -36 -14 -36 -46v-50h19c36 0 54 -12 54 -46
c0 -33 -18 -45 -54 -45h-19v-390c0 -50 -24 -73 -61 -73s-61 23 -61 73z" />
    <glyph glyph-name=".notdef" horiz-adv-x="500" 
d="M0 0v700h500v-700h-500zM250 395l170 255h-340zM280 350l170 -255v510zM80 50h340l-170 255zM50 605v-510l170 255z" />
    <glyph glyph-name="space" unicode=" " 
 />
    <glyph glyph-name="exclam" unicode="!" horiz-adv-x="278" 
d="M72 509v154c0 42 21 70 67 70s67 -28 67 -70v-154c0 -17 -1 -39 -4 -70l-19 -212c-3 -36 -11 -53 -44 -53s-41 17 -44 53l-19 212c-3 31 -4 53 -4 70zM63 63c0 42 34 76 76 76s76 -34 76 -76s-34 -76 -76 -76s-76 34 -76 76z" />
    <glyph glyph-name="quotedbl" unicode="&#x22;" horiz-adv-x="426" 
d="M254 523v151c0 37 26 63 57 63s57 -26 57 -63v-151c0 -37 -26 -63 -57 -63s-57 26 -57 63zM58 523v151c0 37 26 63 57 63s57 -26 57 -63v-151c0 -37 -26 -63 -57 -63s-57 26 -57 63z" />
    <glyph glyph-name="numbersign" unicode="#" horiz-adv-x="480" 
d="M262 197h-86l-21 -157c-3 -29 -14 -53 -54 -53c-23 0 -41 19 -41 42c0 8 2 19 4 33l19 135h-39c-32 0 -44 25 -44 48s12 48 44 48h51l16 121h-39c-32 0 -44 25 -44 48s12 48 44 48h51l20 157c4 29 15 53 54 53c24 0 42 -19 42 -42c0 -8 -2 -19 -4 -33l-18 -135h86l21 157
c3 29 14 53 54 53c23 0 41 -19 41 -42c0 -8 -2 -19 -4 -33l-19 -135h39c32 0 45 -25 45 -48s-13 -48 -45 -48h-51l-16 -121h39c32 0 44 -25 44 -48s-12 -48 -44 -48h-51l-20 -157c-4 -29 -15 -53 -54 -53c-24 0 -42 19 -42 42c0 8 2 19 4 33zM275 293l15 121h-86l-15 -121
h86z" />
    <glyph glyph-name="dollar" unicode="$" horiz-adv-x="480" 
d="M215 83v218l-64 41c-72 46 -110 106 -110 190c0 105 64 185 174 188v26c0 16 7 27 23 27s23 -11 23 -27v-26c91 0 166 -60 166 -151c0 -32 -22 -58 -55 -58c-43 0 -52 26 -59 59c-8 38 -30 54 -52 54v-197l58 -34c76 -44 127 -101 127 -195c0 -128 -67 -205 -185 -211
v-77c0 -15 -7 -26 -23 -26s-23 11 -23 26v77c-105 0 -181 77 -181 178c0 36 17 68 55 68c35 0 54 -20 59 -66c5 -49 25 -80 67 -84zM215 452v172c-40 -7 -60 -37 -60 -79c0 -36 11 -54 60 -93zM261 277v-194c39 6 63 48 63 92c0 49 -21 79 -63 102z" />
    <glyph glyph-name="percent" unicode="%" horiz-adv-x="870" 
d="M44 538c0 111 34 182 154 182s154 -71 154 -182s-34 -182 -154 -182s-154 71 -154 182zM145 560v-33c0 -61 14 -95 53 -95s53 34 53 95v33c0 44 -9 84 -53 84s-53 -40 -53 -84zM518 169c0 111 34 182 154 182s154 -71 154 -182s-34 -182 -154 -182s-154 71 -154 182z
M619 191v-33c0 -61 14 -95 53 -95s53 34 53 95v33c0 44 -9 84 -53 84s-53 -40 -53 -84zM247 22l303 697c7 15 20 26 43 26c24 0 35 -16 35 -31c0 -10 -2 -20 -6 -29l-303 -697c-7 -15 -20 -26 -43 -26c-24 0 -35 16 -35 31c0 10 2 20 6 29z" />
    <glyph glyph-name="ampersand" unicode="&#x26;" horiz-adv-x="630" 
d="M351 403l88 -151c8 21 16 59 22 95c6 38 22 51 53 51c38 0 53 -27 53 -62c0 -51 -32 -143 -62 -195l28 -46c14 -23 20 -39 20 -54c0 -35 -29 -58 -64 -58c-22 0 -37 11 -52 34l-18 26c-41 -39 -88 -56 -152 -56c-129 0 -204 87 -204 210c0 101 51 172 137 228
c-43 69 -57 111 -57 145c0 93 69 150 164 150c103 0 152 -66 152 -136c0 -69 -39 -135 -108 -181zM368 133l-113 196c-41 -30 -70 -77 -70 -117c0 -67 45 -119 98 -119c34 0 57 10 85 40zM270 540l27 -46l13 12c30 27 43 45 43 79c0 28 -20 49 -47 49c-28 0 -49 -19 -49 -44
c0 -20 3 -33 13 -50z" />
    <glyph glyph-name="quotesingle" unicode="'" horiz-adv-x="222" 
d="M54 523v151c0 37 26 63 57 63s57 -26 57 -63v-151c0 -37 -26 -63 -57 -63s-57 26 -57 63z" />
    <glyph glyph-name="parenleft" unicode="(" horiz-adv-x="296" 
d="M51 277c0 286 128 478 182 478c23 0 43 -9 43 -44s-97 -149 -97 -434s97 -399 97 -434s-20 -44 -43 -44c-54 0 -182 192 -182 478z" />
    <glyph glyph-name="parenright" unicode=")" horiz-adv-x="296" 
d="M245 277c0 -286 -128 -478 -182 -478c-23 0 -43 9 -43 44s97 149 97 434s-97 399 -97 434s20 44 43 44c54 0 182 -192 182 -478z" />
    <glyph glyph-name="asterisk" unicode="*" horiz-adv-x="370" 
d="M221 618l68 22c28 10 45 0 51 -20c7 -20 -1 -37 -30 -47l-68 -22l42 -58c18 -24 14 -43 -3 -55c-17 -13 -36 -10 -54 14l-42 58l-42 -58c-18 -24 -37 -27 -54 -14c-17 12 -21 31 -3 55l42 58l-68 23c-29 9 -37 26 -30 46c6 20 23 30 52 20l68 -22v72c0 30 14 43 35 43
s35 -13 35 -43v-72h1z" />
    <glyph glyph-name="plus" unicode="+" horiz-adv-x="600" 
d="M247 336v160c0 41 23 70 53 70s53 -29 53 -70v-160h160c42 0 70 -24 70 -53s-28 -53 -70 -53h-160v-160c0 -41 -23 -70 -53 -70s-53 29 -53 70v160h-160c-42 0 -70 24 -70 53s28 53 70 53h160z" />
    <glyph glyph-name="comma" unicode="," 
d="M40 60c0 43 33 79 80 79c55 0 80 -52 80 -96c0 -107 -77 -181 -133 -181c-16 0 -27 13 -27 25c0 15 6 21 26 28c24 8 62 38 70 73c-9 -1 -15 -1 -21 -1c-55 0 -75 45 -75 73z" />
    <glyph glyph-name="hyphen" unicode="-" horiz-adv-x="333" 
d="M232 226h-131c-43 0 -62 27 -62 57s19 57 62 57h131c43 0 62 -27 62 -57s-19 -57 -62 -57z" />
    <glyph glyph-name="period" unicode="." 
d="M44 63c0 42 34 76 76 76s76 -34 76 -76s-34 -76 -76 -76s-76 34 -76 76z" />
    <glyph glyph-name="slash" unicode="/" horiz-adv-x="333" 
d="M3 54l229 639c9 24 30 44 56 44c25 0 48 -14 48 -36c0 -12 -2 -25 -6 -35l-229 -639c-9 -24 -30 -44 -56 -44c-25 0 -48 14 -48 36c0 12 2 25 6 35z" />
    <glyph glyph-name="zero" unicode="0" horiz-adv-x="480" 
d="M173 493v-279c0 -92 13 -131 67 -131s67 39 67 131v279c0 93 -13 131 -67 131s-67 -38 -67 -131zM39 232v242c-1 116 17 246 201 246s202 -130 201 -246v-242c1 -115 -17 -245 -201 -245s-202 130 -201 245z" />
    <glyph glyph-name="one" unicode="1" horiz-adv-x="333" 
d="M136 505h-93c-32 0 -57 11 -57 41c0 26 13 40 42 45c77 13 110 38 134 84s31 51 65 51c22 0 43 -15 43 -54v-616c0 -42 -31 -69 -67 -69s-67 27 -67 69v449z" />
    <glyph glyph-name="two" unicode="2" horiz-adv-x="480" 
d="M372 0h-277c-40 0 -59 17 -59 57c0 52 24 155 134 265l47 47c70 70 87 106 87 160s-22 90 -67 90c-51 0 -66 -39 -71 -98c-3 -40 -30 -57 -61 -57c-50 0 -61 40 -61 74c0 107 70 182 188 182c133 0 206 -65 206 -193c0 -66 -28 -133 -88 -193l-83 -83
c-54 -54 -80 -94 -92 -137h197c45 0 72 -13 72 -57s-27 -57 -72 -57z" />
    <glyph glyph-name="three" unicode="3" horiz-adv-x="480" 
d="M33 170c0 48 20 80 61 80c39 0 64 -24 67 -75c3 -55 23 -92 74 -92c55 0 72 54 72 124c0 104 -29 121 -83 126c-54 6 -68 18 -68 47c0 28 10 39 62 48c56 10 75 33 75 112c0 44 -15 84 -63 84c-34 0 -56 -19 -64 -67c-6 -42 -27 -61 -65 -61c-37 0 -57 26 -57 61
c0 92 58 163 184 163c144 0 199 -80 199 -185c0 -72 -26 -128 -82 -148c75 -28 96 -85 96 -179c0 -140 -62 -221 -208 -221c-170 0 -200 123 -200 183z" />
    <glyph glyph-name="four" unicode="4" horiz-adv-x="480" 
d="M255 250v289h-2l-133 -289h135zM255 60v84h-170c-47 0 -73 14 -73 55c0 20 6 41 20 71l195 407c20 41 37 49 82 49c49 0 68 -29 68 -63v-413h23c24 0 55 -13 55 -53s-31 -53 -55 -53h-23v-84c0 -50 -24 -73 -61 -73s-61 23 -61 73z" />
    <glyph glyph-name="five" unicode="5" horiz-adv-x="480" 
d="M168 593l-9 -145c26 26 58 38 107 38c98 0 175 -51 175 -236c0 -150 -35 -263 -206 -263c-173 0 -196 125 -196 177c0 40 16 78 62 78s64 -29 66 -65c3 -56 20 -94 68 -94c59 0 72 51 72 148c0 116 -21 159 -80 159c-63 0 -48 -71 -122 -71c-40 0 -56 30 -56 59
c0 9 1 19 2 33l13 246c1 27 13 50 44 50h243c45 0 72 -13 72 -57s-27 -57 -72 -57h-183z" />
    <glyph glyph-name="six" unicode="6" horiz-adv-x="480" 
d="M36 317v76c0 202 39 327 208 327c121 0 177 -56 177 -119c0 -35 -23 -58 -59 -58c-29 0 -40 8 -59 42c-19 32 -27 39 -56 39c-58 0 -77 -55 -77 -142v-41c31 30 64 40 105 40c128 0 169 -98 169 -226c0 -142 -35 -268 -201 -268c-187 0 -207 135 -207 330zM170 233
c0 -96 12 -150 70 -150s70 54 70 150c0 95 -12 147 -70 147s-70 -52 -70 -147z" />
    <glyph glyph-name="seven" unicode="7" horiz-adv-x="444" 
d="M302 587h-229c-45 0 -63 37 -63 59c0 24 18 61 63 61h307c41 0 64 -9 64 -50c0 -11 -2 -22 -39 -93c-64 -124 -134 -348 -149 -508c-4 -42 -29 -69 -73 -69s-61 30 -61 69c0 90 85 366 180 531z" />
    <glyph glyph-name="eight" unicode="8" horiz-adv-x="480" 
d="M169 237v-53c0 -52 12 -101 71 -101s71 49 71 101v53c0 41 -11 101 -71 101s-71 -60 -71 -101zM175 529c0 -47 9 -95 65 -95s65 48 65 95c0 46 -9 95 -65 95c-45 0 -65 -38 -65 -95zM35 200c0 79 18 151 91 185c-59 30 -79 78 -79 144c0 119 62 191 193 191
s193 -72 193 -191c0 -66 -20 -114 -79 -144c73 -34 91 -106 91 -185c0 -101 -30 -213 -205 -213s-205 112 -205 213z" />
    <glyph glyph-name="nine" unicode="9" horiz-adv-x="480" 
d="M444 390v-76c0 -202 -39 -327 -208 -327c-121 0 -177 56 -177 119c0 35 23 58 59 58c29 0 40 -8 59 -42c19 -32 27 -39 56 -39c58 0 77 55 77 142v41c-31 -30 -64 -40 -105 -40c-128 0 -169 98 -169 226c0 142 35 268 201 268c187 0 207 -135 207 -330zM170 474
c0 -95 12 -147 70 -147s70 52 70 147c0 96 -12 150 -70 150s-70 -54 -70 -150z" />
    <glyph glyph-name="colon" unicode=":" 
d="M44 465c0 42 34 76 76 76s76 -34 76 -76s-34 -76 -76 -76s-76 34 -76 76zM44 63c0 42 34 76 76 76s76 -34 76 -76s-34 -76 -76 -76s-76 34 -76 76z" />
    <glyph glyph-name="semicolon" unicode=";" 
d="M40 60c0 43 33 79 80 79c55 0 80 -52 80 -96c0 -107 -77 -181 -133 -181c-16 0 -27 13 -27 25c0 15 6 21 26 28c24 8 62 38 70 73c-9 -1 -15 -1 -21 -1c-55 0 -75 45 -75 73zM44 465c0 42 34 76 76 76s76 -34 76 -76s-34 -76 -76 -76s-76 34 -76 76z" />
    <glyph glyph-name="less" unicode="&#x3c;" horiz-adv-x="600" 
d="M467 39l-407 187c-21 10 -37 32 -37 57s16 47 37 57l407 187c25 12 41 14 55 14c32 0 55 -22 55 -38c0 -19 -5 -41 -47 -59l-367 -161l367 -161c42 -18 47 -40 47 -59c0 -16 -23 -38 -55 -38c-14 0 -30 2 -55 14z" />
    <glyph glyph-name="equal" unicode="=" horiz-adv-x="600" 
d="M513 348h-426c-42 0 -70 24 -70 53s28 53 70 53h426c42 0 70 -24 70 -53s-28 -53 -70 -53zM513 112h-426c-42 0 -70 24 -70 53s28 53 70 53h426c42 0 70 -24 70 -53s-28 -53 -70 -53z" />
    <glyph glyph-name="greater" unicode="&#x3e;" horiz-adv-x="600" 
d="M70 122l367 161l-367 161c-42 18 -47 40 -47 59c0 16 23 38 55 38c14 0 30 -2 55 -14l407 -187c21 -10 37 -32 37 -57s-16 -47 -37 -57l-407 -187c-25 -12 -41 -14 -55 -14c-32 0 -55 22 -55 38c0 19 5 41 47 59z" />
    <glyph glyph-name="question" unicode="?" horiz-adv-x="481" 
d="M201 385l36 41c48 55 57 94 57 129c0 43 -21 77 -62 77c-31 0 -54 -21 -59 -55c-6 -49 -23 -66 -62 -66c-36 0 -60 24 -60 61c0 92 65 161 176 161c128 0 195 -63 195 -187c0 -67 -26 -115 -75 -169l-29 -32c-44 -48 -56 -69 -61 -119c-3 -29 -21 -52 -57 -52
c-32 0 -57 23 -57 63c0 46 18 102 58 148zM124 63c0 42 34 76 76 76s76 -34 76 -76s-34 -76 -76 -76s-76 34 -76 76z" />
    <glyph glyph-name="at" unicode="@" horiz-adv-x="800" 
d="M310 337c0 -48 19 -84 69 -84c71 0 110 49 110 108c0 47 -26 80 -78 80c-58 0 -101 -50 -101 -104zM614 475l-34 -166c-2 -12 -5 -29 -5 -45c0 -11 6 -19 20 -19c41 0 91 44 91 154c0 163 -111 247 -272 247c-153 0 -277 -126 -277 -287c0 -181 125 -285 286 -285
c156 0 185 63 219 63c22 0 40 -15 40 -36c0 -35 -119 -118 -259 -118c-219 0 -400 156 -400 376c0 216 177 378 394 378c196 0 360 -118 360 -310c0 -227 -187 -280 -249 -280c-46 0 -65 18 -70 43h-2c-25 -27 -64 -43 -112 -43c-77 0 -148 61 -148 187
c0 112 95 221 200 221c60 0 93 -20 126 -63l4 18c7 32 29 37 46 37c25 0 46 -15 46 -44c0 -6 -1 -14 -4 -28z" />
    <glyph glyph-name="A" unicode="A" horiz-adv-x="519" 
d="M338 180h-165l-27 -130c-9 -45 -27 -63 -70 -63c-40 0 -63 23 -63 58c0 12 3 35 8 55l128 539c17 73 35 94 110 94c68 0 93 -21 110 -94l127 -535c5 -22 10 -44 10 -55c0 -45 -33 -62 -66 -62c-49 0 -68 20 -81 87zM195 286h122l-59 299h-2z" />
    <glyph glyph-name="B" unicode="B" horiz-adv-x="519" 
d="M56 72v576c0 50 23 72 72 72h180c116 0 159 -74 159 -186c0 -71 -28 -130 -75 -148c74 -27 95 -87 95 -163c0 -117 -48 -223 -186 -223h-173c-49 0 -72 22 -72 72zM190 326v-225h80c50 0 77 40 77 119c0 58 -17 106 -79 106h-78zM190 619v-192h61c55 0 82 33 82 99
c0 68 -30 93 -72 93h-71z" />
    <glyph glyph-name="C" unicode="C" horiz-adv-x="500" 
d="M40 296v114c0 254 70 327 231 327c133 0 202 -81 202 -180c0 -47 -17 -80 -68 -80c-52 0 -64 21 -72 81c-7 50 -27 73 -62 73c-61 0 -91 -27 -91 -242v-40c0 -172 4 -260 87 -260c34 0 65 32 67 73c4 81 16 110 72 110c46 0 68 -31 68 -79c0 -150 -88 -210 -218 -210
c-210 0 -216 173 -216 313z" />
    <glyph glyph-name="D" unicode="D" horiz-adv-x="537" 
d="M190 614v-508h62c70 0 105 45 105 231v58c0 158 -18 219 -101 219h-66zM56 72v576c0 50 23 72 72 72h175c138 0 194 -97 194 -315v-93c0 -216 -73 -312 -200 -312h-169c-49 0 -72 22 -72 72z" />
    <glyph glyph-name="E" unicode="E" horiz-adv-x="500" 
d="M190 314v-194h206c50 0 70 -26 70 -60s-20 -60 -70 -60h-268c-49 0 -72 22 -72 72v576c0 50 23 72 72 72h261c50 0 70 -26 70 -60s-20 -60 -70 -60h-199v-166h186c50 0 70 -26 70 -60s-20 -60 -70 -60h-186z" />
    <glyph glyph-name="F" unicode="F" horiz-adv-x="480" 
d="M190 314v-258c0 -42 -31 -69 -67 -69s-67 27 -67 69v592c0 50 23 72 72 72h248c50 0 70 -26 70 -60s-20 -60 -70 -60h-186v-166h186c50 0 70 -26 70 -60s-20 -60 -70 -60h-186z" />
    <glyph glyph-name="G" unicode="G" horiz-adv-x="519" 
d="M473 328v-286c0 -34 -14 -55 -52 -55c-36 0 -53 26 -53 59v19h-2c-29 -52 -73 -78 -134 -78c-158 0 -192 140 -192 346v73c0 244 65 331 229 331c143 0 204 -91 204 -175c0 -49 -19 -80 -67 -80c-47 0 -61 24 -67 86c-3 31 -22 63 -76 63c-48 0 -83 -29 -83 -195v-100
c0 -175 15 -243 89 -243c59 0 76 58 76 146v41h-55c-38 0 -54 26 -54 57c0 40 22 57 58 57h112c48 0 67 -21 67 -66z" />
    <glyph glyph-name="H" unicode="H" horiz-adv-x="556" 
d="M366 328h-176v-272c0 -42 -31 -69 -67 -69s-67 27 -67 69v608c0 42 31 69 67 69s67 -27 67 -69v-230h176v230c0 42 31 69 67 69s67 -27 67 -69v-608c0 -42 -31 -69 -67 -69s-67 27 -67 69v272z" />
    <glyph glyph-name="I" unicode="I" horiz-adv-x="258" 
d="M62 56v608c0 42 31 69 67 69s67 -27 67 -69v-608c0 -42 -31 -69 -67 -69s-67 27 -67 69z" />
    <glyph glyph-name="J" unicode="J" horiz-adv-x="444" 
d="M254 163v501c0 42 31 69 67 69s67 -27 67 -69v-504c0 -117 -64 -177 -186 -177c-137 0 -178 83 -178 187c0 58 29 84 66 84c50 0 68 -32 68 -94c0 -46 14 -71 46 -71c34 0 50 20 50 74z" />
    <glyph glyph-name="K" unicode="K" horiz-adv-x="519" 
d="M56 56v608c0 42 31 69 67 69s67 -27 67 -69v-264h2l160 291c18 32 34 42 62 42c36 0 67 -24 67 -58c0 -15 -8 -36 -18 -52l-131 -211l156 -321c8 -16 14 -32 14 -46c0 -32 -26 -58 -71 -58c-42 0 -55 19 -72 54l-114 239l-55 -83v-141c0 -42 -31 -69 -67 -69
s-67 27 -67 69z" />
    <glyph glyph-name="L" unicode="L" horiz-adv-x="481" 
d="M190 120h201c50 0 70 -26 70 -60s-20 -60 -70 -60h-263c-49 0 -72 22 -72 72v592c0 42 31 69 67 69s67 -27 67 -69v-544z" />
    <glyph glyph-name="M" unicode="M" horiz-adv-x="704" 
d="M58 56v578c0 65 21 99 108 99c68 0 103 -25 119 -107l66 -346h2l66 346c16 82 51 107 119 107c87 0 108 -34 108 -99v-578c0 -42 -31 -69 -67 -69s-67 27 -67 69v517h-2l-110 -542c-5 -23 -13 -44 -48 -44s-43 21 -48 44l-110 542h-2v-517c0 -42 -31 -69 -67 -69
s-67 27 -67 69z" />
    <glyph glyph-name="N" unicode="N" horiz-adv-x="574" 
d="M56 56v608c0 42 27 69 74 69c42 0 69 -10 93 -68l159 -394h2v393c0 42 31 69 67 69s67 -27 67 -69v-602c0 -48 -31 -75 -67 -75c-55 0 -78 12 -100 68l-159 400h-2v-399c0 -42 -31 -69 -67 -69s-67 27 -67 69z" />
    <glyph glyph-name="O" unicode="O" horiz-adv-x="520" 
d="M40 290v152c0 264 108 295 220 295s220 -31 220 -295v-152c0 -271 -96 -307 -220 -307s-220 36 -220 307zM180 442v-152c0 -176 26 -201 80 -201s80 25 80 201v152c0 155 -27 189 -80 189s-80 -34 -80 -189z" />
    <glyph glyph-name="P" unicode="P" horiz-adv-x="500" 
d="M56 56v592c0 50 23 72 72 72h167c112 0 182 -59 182 -203c0 -114 -54 -211 -171 -211h-116v-250c0 -42 -31 -69 -67 -69s-67 27 -67 69zM190 619v-212h60c60 0 87 41 87 104c0 75 -30 108 -80 108h-67z" />
    <glyph glyph-name="Q" unicode="Q" horiz-adv-x="520" 
d="M40 290v152c0 264 108 295 220 295s220 -31 220 -295v-152c0 -104 -14 -173 -39 -219l38 -36c23 -22 29 -38 29 -52c0 -23 -23 -43 -44 -43c-18 0 -38 13 -61 36l-28 29c-33 -18 -73 -22 -115 -22c-124 0 -220 36 -220 307zM180 442v-152c0 -176 26 -201 80 -201
c10 0 18 1 27 4l-6 6c-14 14 -18 24 -18 38c0 27 23 45 47 45c6 0 13 -1 23 -11c5 29 7 67 7 119v152c0 155 -27 189 -80 189s-80 -34 -80 -189z" />
    <glyph glyph-name="R" unicode="R" horiz-adv-x="519" 
d="M56 56v592c0 50 23 72 72 72h184c121 0 162 -83 162 -185c0 -95 -26 -138 -87 -163c71 -25 83 -69 83 -153v-77c0 -40 9 -76 9 -112c0 -21 -19 -43 -64 -43c-50 0 -80 21 -82 68l-6 184c-2 50 -27 75 -79 75h-58v-258c0 -42 -31 -69 -67 -69s-67 27 -67 69zM190 619v-204
h52c54 0 92 24 92 102c0 72 -22 102 -86 102h-58z" />
    <glyph glyph-name="S" unicode="S" horiz-adv-x="500" 
d="M261 280l-129 91c-70 50 -91 105 -91 178c0 127 98 188 212 188c150 0 199 -107 199 -181c0 -45 -28 -68 -66 -68c-54 0 -62 25 -68 76c-6 50 -34 67 -72 67c-41 0 -71 -26 -71 -69c0 -33 6 -63 72 -107l99 -65c73 -48 117 -100 117 -205c0 -124 -74 -202 -228 -202
c-176 0 -198 156 -198 191c0 48 11 91 68 91c42 0 62 -23 66 -87c3 -49 26 -89 80 -89c53 0 78 38 78 84c0 49 -19 72 -68 107z" />
    <glyph glyph-name="T" unicode="T" horiz-adv-x="520" 
d="M87 720h346c50 0 70 -26 70 -60s-20 -60 -70 -60h-106v-544c0 -42 -31 -69 -67 -69s-67 27 -67 69v544h-106c-50 0 -70 26 -70 60s20 60 70 60z" />
    <glyph glyph-name="U" unicode="U" horiz-adv-x="537" 
d="M51 191v473c0 42 31 69 67 69s67 -27 67 -69v-460c0 -79 33 -115 84 -115c50 0 83 36 83 115v460c0 42 31 69 67 69s67 -27 67 -69v-473c0 -126 -73 -208 -217 -208s-218 82 -218 208z" />
    <glyph glyph-name="V" unicode="V" horiz-adv-x="500" 
d="M152 64l-124 553c-3 14 -9 43 -9 51c0 34 27 65 69 65c41 0 60 -17 68 -59l102 -532h2l88 520c7 42 22 71 67 71c42 0 66 -23 66 -61c0 -16 -3 -33 -7 -54l-119 -559c-13 -61 -40 -72 -104 -72c-70 0 -88 29 -99 77z" />
    <glyph glyph-name="W" unicode="W" horiz-adv-x="759" 
d="M377 449l-67 -407c-8 -46 -30 -55 -86 -55c-64 0 -81 21 -88 59l-109 576c-4 23 -7 40 -7 52c0 34 26 59 72 59c41 0 57 -23 62 -56l82 -502h2l81 503c6 36 19 55 61 55s55 -19 61 -55l90 -503h2l72 498c7 46 32 60 69 60c44 0 65 -20 65 -62c0 -14 -2 -28 -6 -48
l-102 -563c-12 -64 -26 -73 -95 -73c-71 0 -80 13 -91 78l-66 384h-2z" />
    <glyph glyph-name="X" unicode="X" horiz-adv-x="500" 
d="M46 112l127 256l-125 253c-12 25 -16 40 -16 52c0 36 32 60 69 60c32 0 55 -11 77 -65l71 -178l86 194c16 35 34 49 62 49c42 0 70 -22 70 -59c0 -12 -3 -26 -11 -42l-131 -264l138 -281c6 -13 12 -29 12 -39c0 -32 -24 -61 -69 -61c-37 0 -56 17 -70 50l-90 205
l-93 -213c-12 -28 -32 -42 -62 -42c-38 0 -66 23 -66 60c0 17 6 34 21 65z" />
    <glyph glyph-name="Y" unicode="Y" horiz-adv-x="481" 
d="M174 56v240l-146 329c-9 21 -12 36 -12 47c0 43 32 61 66 61c42 0 54 -13 73 -63l86 -228l91 238c17 45 39 53 69 53c38 0 64 -27 64 -54c0 -14 -4 -28 -10 -41l-147 -335v-247c0 -42 -31 -69 -67 -69s-67 27 -67 69z" />
    <glyph glyph-name="Z" unicode="Z" horiz-adv-x="519" 
d="M317 600h-207c-50 0 -70 26 -70 60s20 60 70 60h308c45 0 71 -19 71 -59c0 -20 -8 -43 -25 -71l-273 -470h235c50 0 70 -26 70 -60s-20 -60 -70 -60h-333c-47 0 -70 34 -70 63c0 18 4 30 22 61z" />
    <glyph glyph-name="bracketleft" unicode="[" horiz-adv-x="296" 
d="M69 -107v768c0 48 25 72 77 72h83c28 0 48 -18 48 -48s-20 -48 -48 -48h-38v-720h38c28 0 48 -18 48 -48s-20 -48 -48 -48h-83c-52 0 -77 24 -77 72z" />
    <glyph glyph-name="backslash" unicode="\" horiz-adv-x="333" 
d="M232 27l-229 639c-4 10 -6 23 -6 35c0 22 23 36 48 36c26 0 47 -20 56 -44l229 -639c4 -10 6 -23 6 -35c0 -22 -23 -36 -48 -36c-26 0 -47 20 -56 44z" />
    <glyph glyph-name="bracketright" unicode="]" horiz-adv-x="296" 
d="M105 -83v720h-38c-28 0 -48 18 -48 48s20 48 48 48h83c52 0 77 -24 77 -72v-768c0 -48 -25 -72 -77 -72h-83c-28 0 -48 18 -48 48s20 48 48 48h38z" />
    <glyph glyph-name="asciicircum" unicode="^" horiz-adv-x="600" 
d="M80 397l154 280c19 35 40 43 66 43s47 -8 66 -43l154 -280c9 -17 13 -30 13 -44c0 -15 -9 -36 -47 -36c-27 0 -47 7 -65 40l-121 223l-121 -223c-18 -33 -38 -40 -65 -40c-38 0 -47 21 -47 36c0 14 4 27 13 44z" />
    <glyph glyph-name="underscore" unicode="_" horiz-adv-x="500" 
d="M500 -125h-500c-6 0 -12 9 -12 25s6 25 12 25h500c6 0 12 -9 12 -25s-6 -25 -12 -25z" />
    <glyph glyph-name="grave" unicode="`" 
d="M111 605l-79 73c-13 12 -25 28 -25 46c0 27 23 43 44 43c16 0 25 -2 39 -16l84 -85c9 -9 15 -21 15 -33c0 -25 -16 -44 -42 -44c-14 0 -25 6 -36 16z" />
    <glyph glyph-name="a" unicode="a" horiz-adv-x="444" 
d="M395 394v-278c0 -35 7 -64 7 -81c0 -32 -22 -48 -61 -48c-33 0 -64 16 -64 69l-2 -1c-22 -49 -67 -68 -111 -68c-72 0 -126 43 -126 145c0 82 23 129 87 163l109 57c27 14 39 34 39 57c0 29 -16 54 -47 54c-42 0 -55 -21 -60 -64c-3 -24 -26 -39 -58 -39
c-27 0 -64 13 -64 50c0 94 76 144 170 144c163 0 181 -72 181 -160zM273 184v96l-43 -30c-54 -38 -64 -57 -64 -103c0 -41 17 -64 43 -64c40 0 64 44 64 101z" />
    <glyph glyph-name="b" unicode="b" horiz-adv-x="463" 
d="M181 322v-102c0 -77 13 -132 61 -132c45 0 51 52 51 142v71c0 119 -11 152 -52 152c-29 0 -60 -22 -60 -131zM59 60v600c0 50 24 73 61 73s61 -23 61 -73v-169h2c22 41 63 63 108 63c110 0 130 -100 130 -211v-145c0 -111 -20 -211 -130 -211c-46 0 -86 20 -108 63h-2
c0 -36 -25 -63 -61 -63c-37 0 -61 23 -61 73z" />
    <glyph glyph-name="c" unicode="c" horiz-adv-x="426" 
d="M42 221v99c0 130 16 234 179 234c140 0 169 -99 169 -148c0 -48 -26 -69 -60 -69c-41 0 -62 19 -62 69c0 34 -20 52 -46 52c-49 0 -52 -55 -52 -127v-120c0 -90 13 -128 52 -128c23 0 45 12 46 55c3 69 23 88 62 88c36 0 60 -26 60 -71c0 -54 -25 -168 -169 -168
c-163 0 -179 104 -179 234z" />
    <glyph glyph-name="d" unicode="d" horiz-adv-x="463" 
d="M170 301v-71c0 -90 6 -142 51 -142c48 0 61 55 61 132v102c0 109 -31 131 -60 131c-41 0 -52 -33 -52 -152zM42 198v145c0 111 20 211 130 211c45 0 86 -22 108 -63h2v169c0 50 24 73 61 73s61 -23 61 -73v-600c0 -50 -24 -73 -61 -73c-36 0 -61 27 -61 63h-2
c-22 -43 -62 -63 -108 -63c-110 0 -130 100 -130 211z" />
    <glyph glyph-name="e" unicode="e" horiz-adv-x="426" 
d="M166 340h106v45c0 41 -13 73 -53 73s-53 -32 -53 -73v-45zM38 214v113c0 138 20 227 186 227c127 0 170 -71 170 -213c0 -49 -6 -87 -68 -87h-160v-55c0 -65 5 -116 55 -116c26 0 46 27 47 56c2 53 26 65 60 65c36 0 62 -12 62 -60c0 -98 -67 -157 -166 -157
c-166 0 -186 89 -186 227z" />
    <glyph glyph-name="f" unicode="f" horiz-adv-x="259" 
d="M67 60v390h-13c-36 0 -54 12 -54 45c0 34 18 46 54 46h13v72c0 92 43 120 134 120c40 0 61 -16 61 -54c0 -24 -12 -41 -37 -42c-30 -1 -36 -14 -36 -46v-50h19c36 0 54 -12 54 -46c0 -33 -18 -45 -54 -45h-19v-390c0 -50 -24 -73 -61 -73s-61 23 -61 73z" />
    <glyph glyph-name="g" unicode="g" horiz-adv-x="463" 
d="M170 334v-86c0 -119 11 -152 52 -152c29 0 60 22 60 131v95c0 109 -35 131 -58 131c-34 0 -54 -31 -54 -119zM42 211v140c0 103 27 203 130 203c47 0 93 -26 112 -73h2c0 50 22 73 60 73c34 0 58 -23 58 -73v-511c0 -123 -61 -177 -183 -177c-91 0 -160 30 -160 101
c0 34 26 54 61 54c28 0 46 -17 54 -36c10 -24 27 -33 42 -33c53 0 64 34 64 107v75h-2c-28 -50 -56 -61 -108 -61c-110 0 -130 100 -130 211z" />
    <glyph glyph-name="h" unicode="h" horiz-adv-x="463" 
d="M54 60v600c0 50 24 73 61 73s61 -23 61 -73v-176h2c20 47 67 70 114 70c68 0 117 -42 117 -134v-360c0 -50 -24 -73 -61 -73s-61 23 -61 73v331c0 40 -21 57 -47 57c-39 0 -64 -29 -64 -97v-291c0 -50 -24 -73 -61 -73s-61 23 -61 73z" />
    <glyph glyph-name="i" unicode="i" 
d="M59 60v421c0 50 24 73 61 73s61 -23 61 -73v-421c0 -50 -24 -73 -61 -73s-61 23 -61 73zM50 667c0 39 31 70 70 70s70 -31 70 -70s-31 -70 -70 -70s-70 31 -70 70z" />
    <glyph glyph-name="j" unicode="j" 
d="M59 -64v545c0 50 24 73 61 73s61 -23 61 -73v-572c0 -81 -49 -116 -124 -116c-47 0 -57 24 -57 52c0 34 16 42 41 48c13 3 18 17 18 43zM50 667c0 39 31 70 70 70s70 -31 70 -70s-31 -70 -70 -70s-70 31 -70 70z" />
    <glyph glyph-name="k" unicode="k" horiz-adv-x="444" 
d="M54 60v600c0 50 24 73 61 73s61 -23 61 -73v-323h2l106 166c17 27 39 51 66 51c26 0 60 -17 60 -52c0 -14 -4 -25 -16 -42l-92 -132l111 -256c5 -11 7 -23 7 -35c0 -30 -27 -50 -60 -50s-52 13 -67 47l-78 184l-39 -50v-108c0 -50 -24 -73 -61 -73s-61 23 -61 73z" />
    <glyph glyph-name="l" unicode="l" 
d="M59 60v600c0 50 24 73 61 73s61 -23 61 -73v-600c0 -50 -24 -73 -61 -73s-61 23 -61 73z" />
    <glyph glyph-name="m" unicode="m" horiz-adv-x="686" 
d="M636 420v-360c0 -50 -24 -73 -61 -73s-61 23 -61 73v331c0 40 -21 57 -47 57c-38 0 -63 -29 -63 -97v-291c0 -50 -24 -73 -61 -73s-61 23 -61 73v331c0 40 -21 57 -47 57c-38 0 -63 -29 -63 -97v-291c0 -50 -24 -73 -61 -73s-61 23 -61 73v421c0 50 24 73 61 73
s61 -23 61 -70h2c20 47 67 70 114 70c54 0 85 -16 109 -61c36 45 70 61 122 61c68 0 117 -42 117 -134z" />
    <glyph glyph-name="n" unicode="n" horiz-adv-x="463" 
d="M54 60v421c0 50 24 73 61 73s61 -23 61 -70h2c20 47 67 70 114 70c68 0 117 -42 117 -134v-360c0 -50 -24 -73 -61 -73s-61 23 -61 73v331c0 40 -21 57 -47 57c-39 0 -64 -29 -64 -97v-291c0 -50 -24 -73 -61 -73s-61 23 -61 73z" />
    <glyph glyph-name="o" unicode="o" horiz-adv-x="444" 
d="M166 336v-129c0 -100 16 -124 56 -124s56 24 56 124v129c0 98 -20 122 -56 122s-56 -24 -56 -122zM38 197v147c0 116 38 210 184 210s184 -94 184 -210v-147c0 -116 -38 -210 -184 -210s-184 94 -184 210z" />
    <glyph glyph-name="p" unicode="p" horiz-adv-x="463" 
d="M181 322v-107c0 -77 13 -132 61 -132c45 0 51 52 51 142v76c0 119 -11 152 -52 152c-29 0 -60 -22 -60 -131zM59 -134v615c0 50 24 73 61 73s61 -23 61 -73h2c21 47 66 73 108 73c110 0 130 -100 130 -211v-145c0 -111 -20 -211 -130 -211c-46 0 -86 20 -108 61h-2v-182
c0 -50 -24 -73 -61 -73s-61 23 -61 73z" />
    <glyph glyph-name="q" unicode="q" horiz-adv-x="463" 
d="M282 215v107c0 109 -31 131 -60 131c-41 0 -52 -33 -52 -152v-76c0 -90 6 -142 51 -142c48 0 61 55 61 132zM404 481v-615c0 -50 -24 -73 -61 -73s-61 23 -61 73v182h-2c-22 -41 -62 -61 -108 -61c-110 0 -130 100 -130 211v145c0 111 20 211 130 211
c42 0 87 -26 108 -73h2c0 50 24 73 61 73s61 -23 61 -73z" />
    <glyph glyph-name="r" unicode="r" horiz-adv-x="333" 
d="M54 60v428c0 40 17 66 57 66s57 -26 57 -66v-51h2c18 68 49 117 91 117c33 0 60 -24 60 -79c0 -37 -19 -73 -76 -73c-38 0 -69 -26 -69 -74v-268c0 -50 -24 -73 -61 -73s-61 23 -61 73z" />
    <glyph glyph-name="s" unicode="s" horiz-adv-x="407" 
d="M211 196l-93 69c-70 52 -82 86 -82 143c0 98 69 146 167 146c130 0 164 -89 164 -133c0 -36 -15 -60 -64 -60c-33 0 -48 17 -50 47c-2 37 -22 55 -53 55c-25 0 -42 -16 -42 -42c0 -18 7 -37 27 -52l75 -57c76 -57 116 -93 116 -166c0 -106 -77 -159 -177 -159
c-131 0 -168 86 -168 149c0 46 29 61 58 61c45 0 60 -24 64 -75c2 -23 15 -44 53 -44c32 0 48 18 48 50c0 27 -9 42 -43 68z" />
    <glyph glyph-name="t" unicode="t" horiz-adv-x="259" 
d="M67 94v356h-13c-36 0 -54 12 -54 45c0 34 18 46 54 46h13v93c0 50 24 73 61 73s61 -23 61 -73v-93h28c36 0 54 -12 54 -46c0 -33 -18 -45 -54 -45h-28v-318c0 -23 5 -36 33 -38c28 -1 45 -11 45 -43c0 -41 -25 -57 -77 -57c-94 0 -123 49 -123 100z" />
    <glyph glyph-name="u" unicode="u" horiz-adv-x="463" 
d="M54 121v360c0 50 24 73 61 73s61 -23 61 -73v-331c0 -40 17 -57 47 -57c43 0 64 29 64 97v291c0 50 24 73 61 73s61 -23 61 -73v-421c0 -50 -24 -73 -61 -73s-61 23 -61 70h-2c-20 -47 -67 -70 -114 -70c-68 0 -117 42 -117 134z" />
    <glyph glyph-name="v" unicode="v" horiz-adv-x="426" 
d="M123 64l-96 406c-3 12 -5 19 -5 28c0 36 30 56 62 56c41 0 61 -18 69 -64l64 -355h2l61 355c7 40 22 64 64 64c43 0 60 -27 60 -52c0 -15 -2 -27 -6 -42l-98 -418c-9 -35 -26 -55 -86 -55c-65 0 -79 25 -91 77z" />
    <glyph glyph-name="w" unicode="w" horiz-adv-x="648" 
d="M112 69l-82 387c-3 13 -4 25 -4 36c0 40 25 62 62 62c42 0 60 -29 66 -72l50 -335h2l51 307c11 68 24 100 66 100c24 0 49 -13 57 -56l68 -351h2l50 341c7 45 29 66 65 66c32 0 57 -23 57 -61c0 -9 -1 -18 -4 -32l-82 -398c-10 -51 -24 -76 -82 -76c-60 0 -76 31 -87 91
l-43 225h-2l-46 -249c-8 -43 -33 -67 -81 -67c-50 0 -71 24 -83 82z" />
    <glyph glyph-name="x" unicode="x" horiz-adv-x="407" 
d="M35 92l98 182l-86 161c-14 27 -20 46 -20 62c0 39 31 57 62 57c35 0 47 -12 64 -49l53 -111l57 119c13 27 30 41 57 41c38 0 62 -24 62 -57c0 -14 -5 -28 -22 -60l-87 -158l94 -174c17 -32 21 -46 21 -61c0 -32 -29 -57 -66 -57c-27 0 -47 12 -59 39l-61 134l-67 -135
c-14 -28 -29 -38 -51 -38c-37 0 -65 22 -65 56c0 17 6 31 16 49z" />
    <glyph glyph-name="y" unicode="y" horiz-adv-x="426" 
d="M146 -44l-122 509c-2 11 -5 24 -5 32c0 35 25 57 65 57c31 0 57 -13 63 -47l71 -377h2l60 357c7 40 22 67 66 67c35 0 61 -20 61 -54c0 -7 -2 -19 -7 -39l-127 -535c-25 -106 -50 -133 -153 -133c-46 0 -57 27 -57 53c0 25 9 42 48 46c21 2 39 3 39 34c0 9 -1 19 -4 30z
" />
    <glyph glyph-name="z" unicode="z" horiz-adv-x="426" 
d="M89 541h245c43 0 63 -15 63 -42c0 -21 -5 -33 -22 -63l-193 -330h157c40 0 61 -17 61 -52c0 -36 -21 -54 -61 -54h-254c-42 0 -59 18 -59 51c0 22 8 38 17 54l193 330h-147c-40 0 -61 17 -61 52c0 36 21 54 61 54z" />
    <glyph glyph-name="braceleft" unicode="{" horiz-adv-x="314" 
d="M87 -46v208c0 61 -20 67 -42 67c-28 0 -41 25 -41 48s13 48 41 48c22 0 42 6 42 67v208c0 93 41 133 118 133h65c23 0 40 -15 40 -48s-17 -48 -40 -48h-22c-24 0 -39 -18 -39 -59v-197c0 -93 -64 -100 -95 -103v-2c31 -3 95 -10 95 -103v-197c0 -41 15 -59 39 -59h22
c23 0 40 -15 40 -48s-17 -48 -40 -48h-65c-77 0 -118 40 -118 133z" />
    <glyph glyph-name="bar" unicode="|" horiz-adv-x="222" 
d="M54 56v608c0 50 24 73 57 73s57 -23 57 -73v-608c0 -50 -24 -73 -57 -73s-57 23 -57 73z" />
    <glyph glyph-name="braceright" unicode="}" horiz-adv-x="314" 
d="M227 600v-208c0 -61 20 -67 42 -67c28 0 41 -25 41 -48s-13 -48 -41 -48c-22 0 -42 -6 -42 -67v-208c0 -93 -41 -133 -118 -133h-65c-23 0 -40 15 -40 48s17 48 40 48h22c24 0 39 18 39 59v197c0 93 64 100 95 103v2c-31 3 -95 10 -95 103v197c0 41 -15 59 -39 59h-22
c-23 0 -40 15 -40 48s17 48 40 48h65c77 0 118 -40 118 -133z" />
    <glyph glyph-name="asciitilde" unicode="~" horiz-adv-x="600" 
d="M41 253c0 53 55 110 141 110c43 0 86 -13 124 -27c39 -14 74 -27 99 -27c55 0 69 47 111 47c32 0 43 -19 43 -43c0 -53 -55 -110 -147 -110c-39 0 -81 14 -119 27s-72 27 -98 27c-55 0 -69 -48 -111 -48c-32 0 -43 20 -43 44z" />
    <glyph glyph-name="uni00A0" unicode="&#xa0;" 
 />
    <glyph glyph-name="exclamdown" unicode="&#xa1;" horiz-adv-x="278" 
d="M72 -122v154c0 17 1 39 4 70l19 212c3 36 11 53 44 53s41 -17 44 -53l19 -212c3 -31 4 -53 4 -70v-154c0 -42 -21 -70 -67 -70s-67 28 -67 70zM63 478c0 42 34 76 76 76s76 -34 76 -76s-34 -76 -76 -76s-76 34 -76 76z" />
    <glyph glyph-name="cent" unicode="&#xa2;" horiz-adv-x="480" 
d="M183 287v-88c0 -14 0 -27 1 -38h2l75 296c-1 1 -4 1 -6 1c-62 0 -72 -22 -72 -171zM61 221v99c0 130 16 234 184 234c13 0 26 0 40 -2l11 44c7 26 16 37 31 37c8 0 17 -8 17 -16c0 -7 -1 -13 -4 -23l-13 -50c57 -15 97 -56 97 -146c0 -31 -15 -60 -53 -60
c-43 0 -51 16 -58 68c-2 16 -6 27 -12 34l-88 -348c8 -6 20 -9 36 -9c44 0 61 24 62 65c1 59 22 80 58 80c43 0 56 -29 56 -70c0 -141 -80 -171 -185 -171c-19 0 -36 1 -52 4l-19 -73c-5 -19 -13 -28 -27 -28c-13 0 -18 8 -18 20c0 7 1 16 4 27l17 69
c-75 33 -84 117 -84 215z" />
    <glyph glyph-name="sterling" unicode="&#xa3;" horiz-adv-x="480" 
d="M217 386h111c34 0 47 -24 47 -43s-13 -43 -47 -43h-81c5 -14 8 -27 8 -42c0 -45 -30 -107 -94 -160l2 -2c22 8 48 15 78 15c54 0 71 -18 111 -18c33 0 42 13 71 13c24 0 47 -15 47 -48c0 -49 -59 -71 -120 -71c-62 0 -120 28 -172 28c-17 0 -36 -5 -54 -11
c-17 -6 -35 -10 -48 -10c-26 0 -41 27 -41 55c0 43 98 78 98 176c0 29 -4 55 -10 75h-54c-34 0 -47 24 -47 43s13 43 47 43h16c-17 38 -35 79 -35 137c0 121 92 197 212 197c130 0 194 -82 194 -170c0 -41 -23 -65 -66 -65c-41 0 -56 22 -62 64c-7 47 -30 70 -71 70
c-56 0 -79 -47 -79 -96c0 -56 21 -99 39 -137z" />
    <glyph glyph-name="currency" unicode="&#xa4;" horiz-adv-x="480" 
d="M16 200l23 20c-24 37 -39 81 -39 133s15 96 39 133l-23 20c-11 10 -14 23 -14 32c0 26 23 49 48 49c14 0 28 -4 39 -16l18 -18c37 26 82 40 133 40c50 0 96 -14 132 -40l18 18c12 12 25 16 39 16c25 0 48 -23 48 -49c0 -9 -3 -22 -14 -32l-23 -20c24 -37 40 -81 40 -133
s-16 -96 -40 -133l23 -20c11 -10 14 -23 14 -32c0 -26 -23 -49 -48 -49c-14 0 -27 5 -39 16l-18 18c-36 -26 -82 -40 -132 -40c-51 0 -96 14 -133 40l-18 -18c-11 -11 -25 -16 -39 -16c-25 0 -48 23 -48 49c0 9 3 22 14 32zM122 353c0 -81 45 -126 118 -126s118 45 118 126
s-45 126 -118 126s-118 -45 -118 -126z" />
    <glyph glyph-name="yen" unicode="&#xa5;" horiz-adv-x="480" 
d="M176 216v64h-81c-33 0 -49 16 -49 41c0 24 16 40 49 40h53l-119 266c-6 13 -10 26 -10 40c0 27 23 53 64 53c29 0 45 -8 62 -53l95 -257l95 257c17 45 33 53 62 53c41 0 64 -26 64 -53c0 -14 -4 -27 -10 -40l-119 -266h65c33 0 49 -16 49 -40c0 -25 -16 -41 -49 -41h-93
v-64h93c33 0 49 -16 49 -40c0 -25 -16 -41 -49 -41h-93v-80c0 -41 -31 -68 -64 -68s-64 27 -64 68v80h-81c-33 0 -49 16 -49 41c0 24 16 40 49 40h81z" />
    <glyph glyph-name="brokenbar" unicode="&#xa6;" horiz-adv-x="222" 
d="M54 56v167c0 50 24 73 57 73s57 -23 57 -73v-167c0 -50 -24 -73 -57 -73s-57 23 -57 73zM54 497v167c0 50 24 73 57 73s57 -23 57 -73v-167c0 -50 -24 -73 -57 -73s-57 23 -57 73z" />
    <glyph glyph-name="section" unicode="&#xa7;" horiz-adv-x="481" 
d="M227 74l-99 74c-66 51 -94 102 -94 162c0 62 26 116 77 149c-31 32 -44 75 -44 111c0 75 44 167 177 167c123 0 174 -69 174 -129c0 -34 -27 -57 -63 -57c-26 0 -44 11 -56 47c-11 35 -28 43 -51 43c-48 0 -59 -37 -59 -59c0 -28 16 -52 60 -85l89 -68
c79 -62 109 -105 109 -173c0 -60 -31 -110 -79 -142l12 -14c28 -33 39 -62 39 -104c0 -118 -82 -177 -188 -177c-133 0 -179 86 -179 139c0 39 23 60 62 60c28 0 47 -11 56 -49c9 -37 29 -54 67 -54c40 0 60 27 60 62c0 33 -20 60 -70 97zM193 261l104 -82
c26 17 36 40 36 56c0 28 -16 49 -62 85l-87 69c-24 -14 -36 -36 -36 -60s13 -43 45 -68z" />
    <glyph glyph-name="dieresis" unicode="&#xa8;" 
d="M-40 666c0 37 30 67 67 67s67 -30 67 -67s-30 -67 -67 -67s-67 30 -67 67zM146 666c0 37 30 67 67 67s67 -30 67 -67s-30 -67 -67 -67s-67 30 -67 67z" />
    <glyph glyph-name="copyright" unicode="&#xa9;" horiz-adv-x="800" 
d="M216 363c0 125 76 218 198 218c104 0 166 -69 166 -122c0 -27 -14 -49 -42 -49c-27 0 -41 14 -53 43c-9 23 -32 37 -72 37c-56 0 -91 -47 -91 -125c0 -75 35 -128 93 -128c31 0 60 18 71 39c17 33 34 45 56 45c25 0 42 -17 42 -44c0 -39 -61 -131 -168 -131
c-120 0 -200 95 -200 217zM23 360c0 208 169 377 377 377s377 -169 377 -377s-169 -377 -377 -377s-377 169 -377 377zM137 360c0 -161 110 -271 263 -271s263 110 263 271s-110 271 -263 271s-263 -110 -263 -271z" />
    <glyph glyph-name="ordfeminine" unicode="&#xaa;" horiz-adv-x="289" 
d="M273 624v-166c0 -21 4 -39 4 -49c0 -19 -14 -29 -39 -29c-38 0 -58 10 -57 41h-2c-15 -29 -44 -41 -85 -41c-47 0 -82 26 -82 87c0 49 14 81 56 98l84 34c19 8 25 18 25 33s-10 30 -30 30c-27 0 -36 -13 -39 -39c-2 -14 -17 -23 -55 -23c-17 0 -41 8 -41 30
c0 60 49 90 126 90c123 0 135 -43 135 -96zM177 501v54l-27 -16c-36 -21 -42 -32 -42 -59c0 -23 11 -36 28 -36c26 0 41 25 41 57z" />
    <glyph glyph-name="guillemotleft" unicode="&#xab;" horiz-adv-x="426" 
d="M293 283l73 -64c16 -14 27 -25 27 -38c0 -29 -22 -44 -44 -44c-13 0 -22 5 -31 14l-72 65c-29 26 -36 43 -36 67s7 41 36 67l72 65c9 9 18 14 31 14c22 0 44 -15 44 -44c0 -13 -11 -24 -27 -38zM116 283l73 -64c16 -14 27 -25 27 -38c0 -29 -22 -44 -44 -44
c-13 0 -22 5 -31 14l-72 65c-29 26 -36 43 -36 67s7 41 36 67l72 65c9 9 18 14 31 14c22 0 44 -15 44 -44c0 -13 -11 -24 -27 -38z" />
    <glyph glyph-name="logicalnot" unicode="&#xac;" horiz-adv-x="600" 
d="M583 397v-215c0 -42 -24 -70 -53 -70s-53 28 -53 70v166h-390c-42 0 -70 24 -70 53s28 53 70 53h426c42 0 70 -24 70 -57z" />
    <glyph glyph-name="uni00AD" unicode="&#xad;" horiz-adv-x="333" 
d="M232 226h-131c-43 0 -62 27 -62 57s19 57 62 57h131c43 0 62 -27 62 -57s-19 -57 -62 -57z" />
    <glyph glyph-name="registered" unicode="&#xae;" horiz-adv-x="800" 
d="M251 215v307c0 30 22 45 46 45h126c91 0 146 -27 146 -121c0 -74 -47 -111 -83 -114l69 -95c4 -5 8 -16 8 -26c0 -22 -15 -42 -47 -42c-23 0 -33 9 -51 34l-93 129h-30v-117c0 -31 -21 -46 -45 -46s-46 15 -46 46zM342 497v-95h73c29 0 53 7 53 47s-24 48 -53 48h-73z
M23 360c0 208 169 377 377 377s377 -169 377 -377s-169 -377 -377 -377s-377 169 -377 377zM137 360c0 -161 110 -271 263 -271s263 110 263 271s-110 271 -263 271s-263 -110 -263 -271z" />
    <glyph glyph-name="macron" unicode="&#xaf;" 
d="M1 707h238c33 0 49 -16 49 -43s-16 -43 -49 -43h-238c-33 0 -49 16 -49 43s16 43 49 43z" />
    <glyph glyph-name="degree" unicode="&#xb0;" horiz-adv-x="400" 
d="M57 577c0 80 63 143 143 143s143 -63 143 -143s-63 -143 -143 -143s-143 63 -143 143zM133 577c0 -37 30 -67 67 -67s67 30 67 67s-30 67 -67 67s-67 -30 -67 -67z" />
    <glyph glyph-name="plusminus" unicode="&#xb1;" horiz-adv-x="600" 
d="M247 417v79c0 41 23 70 53 70s53 -29 53 -70v-79h160c42 0 70 -24 70 -53s-28 -53 -70 -53h-160v-79c0 -41 -23 -70 -53 -70s-53 29 -53 70v79h-160c-42 0 -70 24 -70 53s28 53 70 53h160zM87 106h426c42 0 70 -24 70 -53s-28 -53 -70 -53h-426c-42 0 -70 24 -70 53
s28 53 70 53z" />
    <glyph glyph-name="twosuperior" unicode="&#xb2;" horiz-adv-x="312" 
d="M249 287h-194c-26 0 -39 10 -39 34c0 31 17 92 88 159l30 28c46 42 57 64 57 92s-15 50 -38 50c-27 0 -37 -23 -40 -59c-2 -24 -20 -34 -46 -34c-38 0 -45 24 -45 48c0 70 45 115 129 115c93 0 141 -39 141 -108c0 -40 -18 -81 -57 -117l-54 -49c-36 -33 -52 -57 -60 -83
h128c29 0 47 -7 47 -38c0 -30 -18 -38 -47 -38z" />
    <glyph glyph-name="threesuperior" unicode="&#xb3;" horiz-adv-x="316" 
d="M154 280c-122 0 -142 74 -142 110c0 29 13 48 46 48c31 0 48 -14 50 -42c2 -30 15 -52 48 -52c36 0 47 32 47 68c0 59 -19 69 -54 72s-45 11 -45 31c0 21 7 27 41 33c36 6 48 20 48 62c0 22 -9 46 -40 46c-23 0 -37 -11 -42 -37c-4 -22 -18 -33 -48 -33s-43 15 -43 36
c0 55 37 98 131 98c107 0 143 -48 143 -111c0 -43 -17 -77 -56 -88v-2c51 -16 66 -50 66 -106c0 -84 -42 -133 -150 -133z" />
    <glyph glyph-name="acute" unicode="&#xb4;" 
d="M66 666l84 85c14 14 23 16 39 16c21 0 44 -16 44 -43c0 -18 -12 -34 -25 -46l-79 -73c-11 -10 -22 -16 -36 -16c-26 0 -42 19 -42 44c0 12 6 24 15 33z" />
    <glyph glyph-name="mu" unicode="&#xb5;" horiz-adv-x="463" 
d="M54 -134v615c0 50 24 73 61 73s61 -23 61 -73v-331c0 -40 17 -57 47 -57c43 0 64 29 64 97v291c0 50 24 73 61 73s61 -23 61 -73v-421c0 -50 -24 -73 -61 -73s-61 23 -61 70h-2c-7 -16 -20 -34 -36 -47c-17 -14 -36 -23 -55 -23c-6 0 -14 3 -16 9h-2v-130
c0 -50 -24 -73 -61 -73s-61 23 -61 73z" />
    <glyph glyph-name="paragraph" unicode="&#xb6;" horiz-adv-x="481" 
d="M162 -104v475c-77 0 -142 64 -142 171c0 144 88 178 161 178h211c30 0 49 -24 49 -60v-764c0 -36 -19 -60 -50 -60c-32 0 -51 24 -51 60v733h-77v-733c0 -36 -19 -60 -51 -60c-31 0 -50 24 -50 60z" />
    <glyph glyph-name="periodcentered" unicode="&#xb7;" 
d="M44 305c0 42 34 76 76 76s76 -34 76 -76s-34 -76 -76 -76s-76 34 -76 76z" />
    <glyph glyph-name="cedilla" unicode="&#xb8;" 
d="M151 0l-36 -56h13c51 0 87 -20 87 -70c0 -55 -53 -90 -118 -90c-43 0 -78 15 -78 38c0 15 9 25 20 25c18 0 36 -11 51 -11c22 0 44 11 44 36c0 18 -16 32 -34 32c-10 0 -22 -3 -31 -3c-11 0 -19 8 -19 16c0 4 3 11 11 23l38 60h52z" />
    <glyph glyph-name="onesuperior" unicode="&#xb9;" 
d="M102 580h-60c-21 0 -37 7 -37 28c0 19 8 28 27 31c50 7 72 22 87 50c16 28 20 31 49 31c21 0 35 -9 35 -33v-365c0 -26 -21 -42 -51 -42c-29 0 -50 16 -50 42v258z" />
    <glyph glyph-name="ordmasculine" unicode="&#xba;" horiz-adv-x="289" 
d="M181 518v63c0 60 -9 75 -37 75s-36 -15 -36 -75v-63c0 -60 8 -74 36 -74s37 14 37 74zM277 594v-88c0 -69 -25 -126 -133 -126s-132 57 -132 126v88c0 70 24 126 132 126s133 -56 133 -126z" />
    <glyph glyph-name="guillemotright" unicode="&#xbb;" horiz-adv-x="426" 
d="M133 283l-73 64c-16 14 -27 25 -27 38c0 29 22 44 44 44c13 0 22 -5 31 -14l72 -65c29 -26 36 -43 36 -67s-7 -41 -36 -67l-72 -65c-9 -9 -18 -14 -31 -14c-22 0 -44 15 -44 44c0 13 11 24 27 38zM310 283l-73 64c-16 14 -27 25 -27 38c0 29 22 44 44 44
c13 0 22 -5 31 -14l72 -65c29 -26 36 -43 36 -67s-7 -41 -36 -67l-72 -65c-9 -9 -18 -14 -31 -14c-22 0 -44 15 -44 44c0 13 11 24 27 38z" />
    <glyph glyph-name="onequarter" unicode="&#xbc;" horiz-adv-x="740" 
d="M582 144v171h-2l-86 -171h88zM582 31v37h-115c-34 0 -51 9 -51 39c0 18 4 31 13 48l130 248c8 15 21 24 60 24c42 0 54 -18 54 -38v-245h15c16 0 36 -8 36 -38s-20 -38 -36 -38h-15v-37c0 -30 -16 -44 -46 -44s-45 14 -45 44zM169 22l303 697c7 15 20 26 43 26
c24 0 35 -16 35 -31c0 -10 -2 -20 -6 -29l-303 -697c-7 -15 -20 -26 -43 -26c-24 0 -35 16 -35 31c0 10 2 20 6 29zM95 580h-60c-21 0 -37 7 -37 28c0 19 8 28 27 31c50 7 72 22 87 50c16 28 20 31 49 31c21 0 35 -9 35 -33v-365c0 -26 -21 -42 -51 -42c-29 0 -50 16 -50 42
v258z" />
    <glyph glyph-name="onehalf" unicode="&#xbd;" horiz-adv-x="740" 
d="M165 22l303 697c7 15 20 26 43 26c24 0 35 -16 35 -31c0 -10 -2 -20 -6 -29l-303 -697c-7 -15 -20 -26 -43 -26c-24 0 -35 16 -35 31c0 10 2 20 6 29zM95 580h-60c-21 0 -37 7 -37 28c0 19 8 28 27 31c50 7 72 22 87 50c16 28 20 31 49 31c21 0 35 -9 35 -33v-365
c0 -26 -21 -42 -51 -42c-29 0 -50 16 -50 42v258zM677 0h-194c-26 0 -39 10 -39 34c0 31 17 92 88 159l30 28c46 42 57 64 57 92s-15 50 -38 50c-27 0 -37 -23 -40 -59c-2 -24 -20 -34 -46 -34c-38 0 -45 24 -45 48c0 70 45 115 129 115c93 0 141 -39 141 -108
c0 -40 -18 -81 -57 -117l-54 -49c-36 -33 -52 -57 -60 -83h128c29 0 47 -7 47 -38c0 -30 -18 -38 -47 -38z" />
    <glyph glyph-name="threequarters" unicode="&#xbe;" horiz-adv-x="740" 
d="M582 144v171h-2l-86 -171h88zM582 31v37h-115c-34 0 -51 9 -51 39c0 18 4 31 13 48l130 248c8 15 21 24 60 24c42 0 54 -18 54 -38v-245h15c16 0 36 -8 36 -38s-20 -38 -36 -38h-15v-37c0 -30 -16 -44 -46 -44s-45 14 -45 44zM201 22l303 697c7 15 20 26 43 26
c24 0 35 -16 35 -31c0 -10 -2 -20 -6 -29l-303 -697c-7 -15 -20 -26 -43 -26c-24 0 -35 16 -35 31c0 10 2 20 6 29zM153 280c-122 0 -142 74 -142 110c0 29 13 48 46 48c31 0 48 -14 50 -42c2 -30 15 -52 48 -52c36 0 47 32 47 68c0 59 -19 69 -54 72s-45 11 -45 31
c0 21 7 27 41 33c36 6 48 20 48 62c0 22 -9 46 -40 46c-23 0 -37 -11 -42 -37c-4 -22 -18 -33 -48 -33s-43 15 -43 36c0 55 37 98 131 98c107 0 143 -48 143 -111c0 -43 -17 -77 -56 -88v-2c51 -16 66 -50 66 -106c0 -84 -42 -133 -150 -133z" />
    <glyph glyph-name="questiondown" unicode="&#xbf;" horiz-adv-x="481" 
d="M134 164l29 32c44 48 56 69 61 119c3 29 21 52 57 52c32 0 57 -23 57 -63c0 -46 -18 -102 -58 -148l-36 -41c-48 -55 -57 -94 -57 -129c0 -43 21 -77 62 -77c31 0 54 21 59 55c6 49 23 66 62 66c36 0 60 -24 60 -61c0 -92 -65 -161 -176 -161c-128 0 -195 63 -195 187
c0 67 26 115 75 169zM205 478c0 42 34 76 76 76s76 -34 76 -76s-34 -76 -76 -76s-76 34 -76 76z" />
    <glyph glyph-name="Agrave" unicode="&#xc0;" horiz-adv-x="519" 
d="M338 180h-165l-27 -130c-9 -45 -27 -63 -70 -63c-40 0 -63 23 -63 58c0 12 3 35 8 55l128 539c17 73 35 94 110 94c68 0 93 -21 110 -94l127 -535c5 -22 10 -44 10 -55c0 -45 -33 -62 -66 -62c-49 0 -68 20 -81 87zM195 286h122l-59 299h-2zM257 784l-79 73
c-13 12 -25 28 -25 46c0 27 23 43 44 43c16 0 25 -2 39 -16l84 -85c9 -9 15 -21 15 -33c0 -25 -16 -44 -42 -44c-14 0 -25 6 -36 16z" />
    <glyph glyph-name="Aacute" unicode="&#xc1;" horiz-adv-x="519" 
d="M338 180h-165l-27 -130c-9 -45 -27 -63 -70 -63c-40 0 -63 23 -63 58c0 12 3 35 8 55l128 539c17 73 35 94 110 94c68 0 93 -21 110 -94l127 -535c5 -22 10 -44 10 -55c0 -45 -33 -62 -66 -62c-49 0 -68 20 -81 87zM195 286h122l-59 299h-2zM212 845l84 85
c14 14 23 16 39 16c21 0 44 -16 44 -43c0 -18 -12 -34 -25 -46l-79 -73c-11 -10 -22 -16 -36 -16c-26 0 -42 19 -42 44c0 12 6 24 15 33z" />
    <glyph glyph-name="Acircumflex" unicode="&#xc2;" horiz-adv-x="519" 
d="M338 180h-165l-27 -130c-9 -45 -27 -63 -70 -63c-40 0 -63 23 -63 58c0 12 3 35 8 55l128 539c17 73 35 94 110 94c68 0 93 -21 110 -94l127 -535c5 -22 10 -44 10 -55c0 -45 -33 -62 -66 -62c-49 0 -68 20 -81 87zM195 286h122l-59 299h-2zM150 840l43 65
c22 33 43 41 73 41s51 -8 73 -41l43 -65c9 -13 12 -20 12 -31c0 -24 -18 -41 -44 -41c-17 0 -28 9 -36 22l-48 80l-48 -80c-8 -13 -19 -22 -36 -22c-26 0 -44 17 -44 41c0 11 3 18 12 31z" />
    <glyph glyph-name="Atilde" unicode="&#xc3;" horiz-adv-x="519" 
d="M338 180h-165l-27 -130c-9 -45 -27 -63 -70 -63c-40 0 -63 23 -63 58c0 12 3 35 8 55l128 539c17 73 35 94 110 94c68 0 93 -21 110 -94l127 -535c5 -22 10 -44 10 -55c0 -45 -33 -62 -66 -62c-49 0 -68 20 -81 87zM195 286h122l-59 299h-2zM101 814c0 39 53 85 98 85
c50 0 96 -26 117 -26c31 0 46 35 75 35c23 0 40 -15 40 -36c0 -41 -47 -90 -97 -90c-19 0 -109 26 -123 26c-27 0 -39 -34 -67 -34c-24 0 -43 15 -43 40z" />
    <glyph glyph-name="Adieresis" unicode="&#xc4;" horiz-adv-x="519" 
d="M338 180h-165l-27 -130c-9 -45 -27 -63 -70 -63c-40 0 -63 23 -63 58c0 12 3 35 8 55l128 539c17 73 35 94 110 94c68 0 93 -21 110 -94l127 -535c5 -22 10 -44 10 -55c0 -45 -33 -62 -66 -62c-49 0 -68 20 -81 87zM195 286h122l-59 299h-2zM106 845c0 37 30 67 67 67
s67 -30 67 -67s-30 -67 -67 -67s-67 30 -67 67zM292 845c0 37 30 67 67 67s67 -30 67 -67s-30 -67 -67 -67s-67 30 -67 67z" />
    <glyph glyph-name="Aring" unicode="&#xc5;" horiz-adv-x="519" 
d="M338 180h-165l-27 -130c-9 -45 -27 -63 -70 -63c-40 0 -63 23 -63 58c0 12 3 35 8 55l128 539c17 73 35 94 110 94c68 0 93 -21 110 -94l127 -535c5 -22 10 -44 10 -55c0 -45 -33 -62 -66 -62c-49 0 -68 20 -81 87zM195 286h122l-59 299h-2zM154 859c0 59 47 106 106 106
s106 -47 106 -106s-47 -106 -106 -106s-106 47 -106 106zM212 859c0 -27 21 -48 48 -48s48 21 48 48s-21 48 -48 48s-48 -21 -48 -48z" />
    <glyph glyph-name="AE" unicode="&#xc6;" horiz-adv-x="778" 
d="M475 600v-166h187c50 0 70 -26 70 -60s-20 -60 -70 -60h-187v-194h199c50 0 70 -26 70 -60s-20 -60 -70 -60h-261c-49 0 -72 22 -72 72v108h-164l-33 -121c-11 -39 -25 -72 -71 -72c-45 0 -67 32 -67 58c0 10 3 21 7 36l167 585c10 35 30 54 72 54h422
c50 0 70 -26 70 -60s-20 -60 -70 -60h-199zM293 606l-87 -320h135v320h-48z" />
    <glyph glyph-name="Ccedilla" unicode="&#xc7;" horiz-adv-x="500" 
d="M201 -60l28 43c-184 16 -189 179 -189 313v114c0 254 70 327 231 327c133 0 202 -81 202 -180c0 -47 -17 -80 -68 -80c-52 0 -64 21 -72 81c-7 50 -27 73 -62 73c-61 0 -91 -27 -91 -242v-40c0 -172 4 -260 87 -260c34 0 65 32 67 73c4 81 16 110 72 110
c46 0 68 -31 68 -79c0 -140 -77 -202 -193 -210l-26 -39h13c51 0 87 -20 87 -70c0 -55 -53 -90 -118 -90c-43 0 -78 15 -78 38c0 15 9 25 20 25c18 0 36 -11 51 -11c22 0 44 11 44 36c0 18 -16 32 -34 32c-10 0 -22 -3 -31 -3c-11 0 -19 8 -19 16c0 4 3 11 11 23z" />
    <glyph glyph-name="Egrave" unicode="&#xc8;" horiz-adv-x="500" 
d="M190 314v-194h206c50 0 70 -26 70 -60s-20 -60 -70 -60h-268c-49 0 -72 22 -72 72v576c0 50 23 72 72 72h261c50 0 70 -26 70 -60s-20 -60 -70 -60h-199v-166h186c50 0 70 -26 70 -60s-20 -60 -70 -60h-186zM253 784l-79 73c-13 12 -25 28 -25 46c0 27 23 43 44 43
c16 0 25 -2 39 -16l84 -85c9 -9 15 -21 15 -33c0 -25 -16 -44 -42 -44c-14 0 -25 6 -36 16z" />
    <glyph glyph-name="Eacute" unicode="&#xc9;" horiz-adv-x="500" 
d="M190 314v-194h206c50 0 70 -26 70 -60s-20 -60 -70 -60h-268c-49 0 -72 22 -72 72v576c0 50 23 72 72 72h261c50 0 70 -26 70 -60s-20 -60 -70 -60h-199v-166h186c50 0 70 -26 70 -60s-20 -60 -70 -60h-186zM208 845l84 85c14 14 23 16 39 16c21 0 44 -16 44 -43
c0 -18 -12 -34 -25 -46l-79 -73c-11 -10 -22 -16 -36 -16c-26 0 -42 19 -42 44c0 12 6 24 15 33z" />
    <glyph glyph-name="Ecircumflex" unicode="&#xca;" horiz-adv-x="500" 
d="M190 314v-194h206c50 0 70 -26 70 -60s-20 -60 -70 -60h-268c-49 0 -72 22 -72 72v576c0 50 23 72 72 72h261c50 0 70 -26 70 -60s-20 -60 -70 -60h-199v-166h186c50 0 70 -26 70 -60s-20 -60 -70 -60h-186zM146 840l43 65c22 33 43 41 73 41s51 -8 73 -41l43 -65
c9 -13 12 -20 12 -31c0 -24 -18 -41 -44 -41c-17 0 -28 9 -36 22l-48 80l-48 -80c-8 -13 -19 -22 -36 -22c-26 0 -44 17 -44 41c0 11 3 18 12 31z" />
    <glyph glyph-name="Edieresis" unicode="&#xcb;" horiz-adv-x="500" 
d="M190 314v-194h206c50 0 70 -26 70 -60s-20 -60 -70 -60h-268c-49 0 -72 22 -72 72v576c0 50 23 72 72 72h261c50 0 70 -26 70 -60s-20 -60 -70 -60h-199v-166h186c50 0 70 -26 70 -60s-20 -60 -70 -60h-186zM102 845c0 37 30 67 67 67s67 -30 67 -67s-30 -67 -67 -67
s-67 30 -67 67zM288 845c0 37 30 67 67 67s67 -30 67 -67s-30 -67 -67 -67s-67 30 -67 67z" />
    <glyph glyph-name="Igrave" unicode="&#xcc;" horiz-adv-x="258" 
d="M62 56v608c0 42 31 69 67 69s67 -27 67 -69v-608c0 -42 -31 -69 -67 -69s-67 27 -67 69zM126 784l-79 73c-13 12 -25 28 -25 46c0 27 23 43 44 43c16 0 25 -2 39 -16l84 -85c9 -9 15 -21 15 -33c0 -25 -16 -44 -42 -44c-14 0 -25 6 -36 16z" />
    <glyph glyph-name="Iacute" unicode="&#xcd;" horiz-adv-x="258" 
d="M62 56v608c0 42 31 69 67 69s67 -27 67 -69v-608c0 -42 -31 -69 -67 -69s-67 27 -67 69zM81 845l84 85c14 14 23 16 39 16c21 0 44 -16 44 -43c0 -18 -12 -34 -25 -46l-79 -73c-11 -10 -22 -16 -36 -16c-26 0 -42 19 -42 44c0 12 6 24 15 33z" />
    <glyph glyph-name="Icircumflex" unicode="&#xce;" horiz-adv-x="258" 
d="M62 56v608c0 42 31 69 67 69s67 -27 67 -69v-608c0 -42 -31 -69 -67 -69s-67 27 -67 69zM13 840l43 65c22 33 43 41 73 41s51 -8 73 -41l43 -65c9 -13 12 -20 12 -31c0 -24 -18 -41 -44 -41c-17 0 -28 9 -36 22l-48 80l-48 -80c-8 -13 -19 -22 -36 -22
c-26 0 -44 17 -44 41c0 11 3 18 12 31z" />
    <glyph glyph-name="Idieresis" unicode="&#xcf;" horiz-adv-x="258" 
d="M62 56v608c0 42 31 69 67 69s67 -27 67 -69v-608c0 -42 -31 -69 -67 -69s-67 27 -67 69zM-31 845c0 37 30 67 67 67s67 -30 67 -67s-30 -67 -67 -67s-67 30 -67 67zM155 845c0 37 30 67 67 67s67 -30 67 -67s-30 -67 -67 -67s-67 30 -67 67z" />
    <glyph glyph-name="Eth" unicode="&#xd0;" horiz-adv-x="537" 
d="M190 614v-187h60c22 0 39 -17 39 -51c0 -33 -17 -50 -39 -50h-60v-220h62c70 0 105 45 105 231v58c0 158 -18 219 -101 219h-66zM56 72v254h-34c-22 0 -39 17 -39 50c0 34 17 51 39 51h34v221c0 50 23 72 72 72h175c138 0 194 -97 194 -315v-93
c0 -216 -73 -312 -200 -312h-169c-49 0 -72 22 -72 72z" />
    <glyph glyph-name="Ntilde" unicode="&#xd1;" horiz-adv-x="574" 
d="M56 56v608c0 42 27 69 74 69c42 0 69 -10 93 -68l159 -394h2v393c0 42 31 69 67 69s67 -27 67 -69v-602c0 -48 -31 -75 -67 -75c-55 0 -78 12 -100 68l-159 400h-2v-399c0 -42 -31 -69 -67 -69s-67 27 -67 69zM122 814c0 39 53 85 98 85c50 0 96 -26 117 -26
c31 0 46 35 75 35c23 0 40 -15 40 -36c0 -41 -47 -90 -97 -90c-19 0 -109 26 -123 26c-27 0 -39 -34 -67 -34c-24 0 -43 15 -43 40z" />
    <glyph glyph-name="Ograve" unicode="&#xd2;" horiz-adv-x="520" 
d="M40 290v152c0 264 108 295 220 295s220 -31 220 -295v-152c0 -271 -96 -307 -220 -307s-220 36 -220 307zM180 442v-152c0 -176 26 -201 80 -201s80 25 80 201v152c0 155 -27 189 -80 189s-80 -34 -80 -189zM251 784l-79 73c-13 12 -25 28 -25 46c0 27 23 43 44 43
c16 0 25 -2 39 -16l84 -85c9 -9 15 -21 15 -33c0 -25 -16 -44 -42 -44c-14 0 -25 6 -36 16z" />
    <glyph glyph-name="Oacute" unicode="&#xd3;" horiz-adv-x="520" 
d="M40 290v152c0 264 108 295 220 295s220 -31 220 -295v-152c0 -271 -96 -307 -220 -307s-220 36 -220 307zM180 442v-152c0 -176 26 -201 80 -201s80 25 80 201v152c0 155 -27 189 -80 189s-80 -34 -80 -189zM206 845l84 85c14 14 23 16 39 16c21 0 44 -16 44 -43
c0 -18 -12 -34 -25 -46l-79 -73c-11 -10 -22 -16 -36 -16c-26 0 -42 19 -42 44c0 12 6 24 15 33z" />
    <glyph glyph-name="Ocircumflex" unicode="&#xd4;" horiz-adv-x="520" 
d="M40 290v152c0 264 108 295 220 295s220 -31 220 -295v-152c0 -271 -96 -307 -220 -307s-220 36 -220 307zM180 442v-152c0 -176 26 -201 80 -201s80 25 80 201v152c0 155 -27 189 -80 189s-80 -34 -80 -189zM144 840l43 65c22 33 43 41 73 41s51 -8 73 -41l43 -65
c9 -13 12 -20 12 -31c0 -24 -18 -41 -44 -41c-17 0 -28 9 -36 22l-48 80l-48 -80c-8 -13 -19 -22 -36 -22c-26 0 -44 17 -44 41c0 11 3 18 12 31z" />
    <glyph glyph-name="Otilde" unicode="&#xd5;" horiz-adv-x="520" 
d="M40 290v152c0 264 108 295 220 295s220 -31 220 -295v-152c0 -271 -96 -307 -220 -307s-220 36 -220 307zM180 442v-152c0 -176 26 -201 80 -201s80 25 80 201v152c0 155 -27 189 -80 189s-80 -34 -80 -189zM95 814c0 39 53 85 98 85c50 0 96 -26 117 -26
c31 0 46 35 75 35c23 0 40 -15 40 -36c0 -41 -47 -90 -97 -90c-19 0 -109 26 -123 26c-27 0 -39 -34 -67 -34c-24 0 -43 15 -43 40z" />
    <glyph glyph-name="Odieresis" unicode="&#xd6;" horiz-adv-x="520" 
d="M40 290v152c0 264 108 295 220 295s220 -31 220 -295v-152c0 -271 -96 -307 -220 -307s-220 36 -220 307zM180 442v-152c0 -176 26 -201 80 -201s80 25 80 201v152c0 155 -27 189 -80 189s-80 -34 -80 -189zM100 845c0 37 30 67 67 67s67 -30 67 -67s-30 -67 -67 -67
s-67 30 -67 67zM286 845c0 37 30 67 67 67s67 -30 67 -67s-30 -67 -67 -67s-67 30 -67 67z" />
    <glyph glyph-name="multiply" unicode="&#xd7;" horiz-adv-x="600" 
d="M225 283l-138 137c-17 17 -25 37 -25 57c0 21 22 44 46 44c18 0 39 -10 55 -26l137 -137l137 137c16 16 37 26 55 26c24 0 46 -23 46 -44c0 -20 -8 -40 -25 -57l-138 -137l138 -137c17 -17 25 -37 25 -57c0 -21 -22 -44 -46 -44c-18 0 -39 10 -55 26l-137 137l-137 -137
c-16 -16 -37 -26 -55 -26c-24 0 -46 23 -46 44c0 20 8 40 25 57z" />
    <glyph glyph-name="Oslash" unicode="&#xd8;" horiz-adv-x="520" 
d="M180 442v-168h2l153 262c-8 69 -31 95 -75 95c-53 0 -80 -34 -80 -189zM340 290v157h-2l-153 -265c9 -71 29 -93 75 -93c54 0 80 25 80 201zM40 290v152c0 264 108 295 220 295c65 0 121 -13 158 -54l19 32c13 23 20 31 34 31s24 -11 24 -22c0 -6 -5 -18 -12 -29l-35 -60
c21 -48 32 -109 32 -193v-152c0 -271 -96 -307 -220 -307c-65 0 -119 9 -158 54l-14 -25c-12 -22 -26 -38 -40 -38s-23 12 -23 21c0 8 3 15 15 36l32 55c-21 40 -32 118 -32 204z" />
    <glyph glyph-name="Ugrave" unicode="&#xd9;" horiz-adv-x="537" 
d="M51 191v473c0 42 31 69 67 69s67 -27 67 -69v-460c0 -79 33 -115 84 -115c50 0 83 36 83 115v460c0 42 31 69 67 69s67 -27 67 -69v-473c0 -126 -73 -208 -217 -208s-218 82 -218 208zM260 784l-79 73c-13 12 -25 28 -25 46c0 27 23 43 44 43c16 0 25 -2 39 -16l84 -85
c9 -9 15 -21 15 -33c0 -25 -16 -44 -42 -44c-14 0 -25 6 -36 16z" />
    <glyph glyph-name="Uacute" unicode="&#xda;" horiz-adv-x="537" 
d="M51 191v473c0 42 31 69 67 69s67 -27 67 -69v-460c0 -79 33 -115 84 -115c50 0 83 36 83 115v460c0 42 31 69 67 69s67 -27 67 -69v-473c0 -126 -73 -208 -217 -208s-218 82 -218 208zM215 845l84 85c14 14 23 16 39 16c21 0 44 -16 44 -43c0 -18 -12 -34 -25 -46
l-79 -73c-11 -10 -22 -16 -36 -16c-26 0 -42 19 -42 44c0 12 6 24 15 33z" />
    <glyph glyph-name="Ucircumflex" unicode="&#xdb;" horiz-adv-x="537" 
d="M51 191v473c0 42 31 69 67 69s67 -27 67 -69v-460c0 -79 33 -115 84 -115c50 0 83 36 83 115v460c0 42 31 69 67 69s67 -27 67 -69v-473c0 -126 -73 -208 -217 -208s-218 82 -218 208zM153 840l43 65c22 33 43 41 73 41s51 -8 73 -41l43 -65c9 -13 12 -20 12 -31
c0 -24 -18 -41 -44 -41c-17 0 -28 9 -36 22l-48 80l-48 -80c-8 -13 -19 -22 -36 -22c-26 0 -44 17 -44 41c0 11 3 18 12 31z" />
    <glyph glyph-name="Udieresis" unicode="&#xdc;" horiz-adv-x="537" 
d="M51 191v473c0 42 31 69 67 69s67 -27 67 -69v-460c0 -79 33 -115 84 -115c50 0 83 36 83 115v460c0 42 31 69 67 69s67 -27 67 -69v-473c0 -126 -73 -208 -217 -208s-218 82 -218 208zM109 845c0 37 30 67 67 67s67 -30 67 -67s-30 -67 -67 -67s-67 30 -67 67zM295 845
c0 37 30 67 67 67s67 -30 67 -67s-30 -67 -67 -67s-67 30 -67 67z" />
    <glyph glyph-name="Yacute" unicode="&#xdd;" horiz-adv-x="481" 
d="M174 56v240l-146 329c-9 21 -12 36 -12 47c0 43 32 61 66 61c42 0 54 -13 73 -63l86 -228l91 238c17 45 39 53 69 53c38 0 64 -27 64 -54c0 -14 -4 -28 -10 -41l-147 -335v-247c0 -42 -31 -69 -67 -69s-67 27 -67 69zM187 845l84 85c14 14 23 16 39 16
c21 0 44 -16 44 -43c0 -18 -12 -34 -25 -46l-79 -73c-11 -10 -22 -16 -36 -16c-26 0 -42 19 -42 44c0 12 6 24 15 33z" />
    <glyph glyph-name="Thorn" unicode="&#xde;" horiz-adv-x="500" 
d="M56 56v608c0 42 31 69 67 69s67 -27 67 -69v-60h105c112 0 182 -59 182 -203c0 -114 -54 -211 -171 -211h-116v-134c0 -42 -31 -69 -67 -69s-67 27 -67 69zM190 503v-212h60c60 0 87 41 87 104c0 75 -30 108 -80 108h-67z" />
    <glyph glyph-name="germandbls" unicode="&#xdf;" horiz-adv-x="481" 
d="M54 60v510c0 105 64 163 187 163c114 0 176 -64 176 -166c0 -61 -19 -110 -71 -131v-2c66 -18 83 -81 83 -166c0 -137 -10 -274 -151 -274c-31 0 -62 16 -62 51c0 26 7 40 47 54c31 11 38 41 38 145c0 81 -8 121 -48 135c-26 9 -35 23 -35 49c0 33 13 42 36 53
s35 31 35 67c0 38 -9 84 -53 84c-38 0 -60 -24 -60 -78v-494c0 -50 -24 -73 -61 -73s-61 23 -61 73z" />
    <glyph glyph-name="agrave" unicode="&#xe0;" horiz-adv-x="444" 
d="M395 394v-278c0 -35 7 -64 7 -81c0 -32 -22 -48 -61 -48c-33 0 -64 16 -64 69l-2 -1c-22 -49 -67 -68 -111 -68c-72 0 -126 43 -126 145c0 82 23 129 87 163l109 57c27 14 39 34 39 57c0 29 -16 54 -47 54c-42 0 -55 -21 -60 -64c-3 -24 -26 -39 -58 -39
c-27 0 -64 13 -64 50c0 94 76 144 170 144c163 0 181 -72 181 -160zM273 184v96l-43 -30c-54 -38 -64 -57 -64 -103c0 -41 17 -64 43 -64c40 0 64 44 64 101zM213 605l-79 73c-13 12 -25 28 -25 46c0 27 23 43 44 43c16 0 25 -2 39 -16l84 -85c9 -9 15 -21 15 -33
c0 -25 -16 -44 -42 -44c-14 0 -25 6 -36 16z" />
    <glyph glyph-name="aacute" unicode="&#xe1;" horiz-adv-x="444" 
d="M395 394v-278c0 -35 7 -64 7 -81c0 -32 -22 -48 -61 -48c-33 0 -64 16 -64 69l-2 -1c-22 -49 -67 -68 -111 -68c-72 0 -126 43 -126 145c0 82 23 129 87 163l109 57c27 14 39 34 39 57c0 29 -16 54 -47 54c-42 0 -55 -21 -60 -64c-3 -24 -26 -39 -58 -39
c-27 0 -64 13 -64 50c0 94 76 144 170 144c163 0 181 -72 181 -160zM273 184v96l-43 -30c-54 -38 -64 -57 -64 -103c0 -41 17 -64 43 -64c40 0 64 44 64 101zM168 666l84 85c14 14 23 16 39 16c21 0 44 -16 44 -43c0 -18 -12 -34 -25 -46l-79 -73c-11 -10 -22 -16 -36 -16
c-26 0 -42 19 -42 44c0 12 6 24 15 33z" />
    <glyph glyph-name="acircumflex" unicode="&#xe2;" horiz-adv-x="444" 
d="M395 394v-278c0 -35 7 -64 7 -81c0 -32 -22 -48 -61 -48c-33 0 -64 16 -64 69l-2 -1c-22 -49 -67 -68 -111 -68c-72 0 -126 43 -126 145c0 82 23 129 87 163l109 57c27 14 39 34 39 57c0 29 -16 54 -47 54c-42 0 -55 -21 -60 -64c-3 -24 -26 -39 -58 -39
c-27 0 -64 13 -64 50c0 94 76 144 170 144c163 0 181 -72 181 -160zM273 184v96l-43 -30c-54 -38 -64 -57 -64 -103c0 -41 17 -64 43 -64c40 0 64 44 64 101zM106 661l43 65c22 33 43 41 73 41s51 -8 73 -41l43 -65c9 -13 12 -20 12 -31c0 -24 -18 -41 -44 -41
c-17 0 -28 9 -36 22l-48 80l-48 -80c-8 -13 -19 -22 -36 -22c-26 0 -44 17 -44 41c0 11 3 18 12 31z" />
    <glyph glyph-name="atilde" unicode="&#xe3;" horiz-adv-x="444" 
d="M395 394v-278c0 -35 7 -64 7 -81c0 -32 -22 -48 -61 -48c-33 0 -64 16 -64 69l-2 -1c-22 -49 -67 -68 -111 -68c-72 0 -126 43 -126 145c0 82 23 129 87 163l109 57c27 14 39 34 39 57c0 29 -16 54 -47 54c-42 0 -55 -21 -60 -64c-3 -24 -26 -39 -58 -39
c-27 0 -64 13 -64 50c0 94 76 144 170 144c163 0 181 -72 181 -160zM273 184v96l-43 -30c-54 -38 -64 -57 -64 -103c0 -41 17 -64 43 -64c40 0 64 44 64 101zM57 635c0 39 53 85 98 85c50 0 96 -26 117 -26c31 0 46 35 75 35c23 0 40 -15 40 -36c0 -41 -47 -90 -97 -90
c-19 0 -109 26 -123 26c-27 0 -39 -34 -67 -34c-24 0 -43 15 -43 40z" />
    <glyph glyph-name="adieresis" unicode="&#xe4;" horiz-adv-x="444" 
d="M395 394v-278c0 -35 7 -64 7 -81c0 -32 -22 -48 -61 -48c-33 0 -64 16 -64 69l-2 -1c-22 -49 -67 -68 -111 -68c-72 0 -126 43 -126 145c0 82 23 129 87 163l109 57c27 14 39 34 39 57c0 29 -16 54 -47 54c-42 0 -55 -21 -60 -64c-3 -24 -26 -39 -58 -39
c-27 0 -64 13 -64 50c0 94 76 144 170 144c163 0 181 -72 181 -160zM273 184v96l-43 -30c-54 -38 -64 -57 -64 -103c0 -41 17 -64 43 -64c40 0 64 44 64 101zM62 666c0 37 30 67 67 67s67 -30 67 -67s-30 -67 -67 -67s-67 30 -67 67zM248 666c0 37 30 67 67 67
s67 -30 67 -67s-30 -67 -67 -67s-67 30 -67 67z" />
    <glyph glyph-name="aring" unicode="&#xe5;" horiz-adv-x="444" 
d="M395 394v-278c0 -35 7 -64 7 -81c0 -32 -22 -48 -61 -48c-33 0 -64 16 -64 69l-2 -1c-22 -49 -67 -68 -111 -68c-72 0 -126 43 -126 145c0 82 23 129 87 163l109 57c27 14 39 34 39 57c0 29 -16 54 -47 54c-42 0 -55 -21 -60 -64c-3 -24 -26 -39 -58 -39
c-27 0 -64 13 -64 50c0 94 76 144 170 144c163 0 181 -72 181 -160zM273 184v96l-43 -30c-54 -38 -64 -57 -64 -103c0 -41 17 -64 43 -64c40 0 64 44 64 101zM126 695c0 59 47 106 106 106s106 -47 106 -106s-47 -106 -106 -106s-106 47 -106 106zM184 695
c0 -27 21 -48 48 -48s48 21 48 48s-21 48 -48 48s-48 -21 -48 -48z" />
    <glyph glyph-name="ae" unicode="&#xe6;" horiz-adv-x="648" 
d="M548 254h-161v-55c0 -65 5 -116 55 -116c27 0 47 27 48 56c2 53 26 65 60 65c36 0 62 -12 62 -60c0 -98 -67 -157 -166 -157c-76 0 -119 21 -151 71c-33 -50 -81 -71 -131 -71c-72 0 -126 43 -126 145c0 82 23 129 87 163l109 57c27 14 39 34 39 57c0 29 -16 54 -47 54
c-42 0 -55 -21 -60 -64c-3 -24 -26 -39 -58 -39c-27 0 -64 13 -64 50c0 94 76 144 170 144c42 0 89 -9 120 -40c32 27 74 40 112 40c127 0 170 -71 170 -213c0 -49 -6 -87 -68 -87zM209 83c40 0 64 44 64 101v96l-43 -30c-54 -38 -64 -57 -64 -103c0 -41 17 -64 43 -64z
M387 340h107v45c0 41 -13 73 -54 73c-40 0 -53 -32 -53 -73v-45z" />
    <glyph glyph-name="ccedilla" unicode="&#xe7;" horiz-adv-x="426" 
d="M162 -60l31 49c-137 12 -151 110 -151 232v99c0 130 16 234 179 234c140 0 169 -99 169 -148c0 -48 -26 -69 -60 -69c-41 0 -62 19 -62 69c0 34 -20 52 -46 52c-49 0 -52 -55 -52 -127v-120c0 -90 13 -128 52 -128c23 0 45 12 46 55c3 69 23 88 62 88c36 0 60 -26 60 -71
c0 -51 -22 -154 -145 -165l-29 -46h13c51 0 87 -20 87 -70c0 -55 -53 -90 -118 -90c-43 0 -78 15 -78 38c0 15 9 25 20 25c18 0 36 -11 51 -11c22 0 44 11 44 36c0 18 -16 32 -34 32c-10 0 -22 -3 -31 -3c-11 0 -19 8 -19 16c0 4 3 11 11 23z" />
    <glyph glyph-name="egrave" unicode="&#xe8;" horiz-adv-x="426" 
d="M166 340h106v45c0 41 -13 73 -53 73s-53 -32 -53 -73v-45zM38 214v113c0 138 20 227 186 227c127 0 170 -71 170 -213c0 -49 -6 -87 -68 -87h-160v-55c0 -65 5 -116 55 -116c26 0 46 27 47 56c2 53 26 65 60 65c36 0 62 -12 62 -60c0 -98 -67 -157 -166 -157
c-166 0 -186 89 -186 227zM210 605l-79 73c-13 12 -25 28 -25 46c0 27 23 43 44 43c16 0 25 -2 39 -16l84 -85c9 -9 15 -21 15 -33c0 -25 -16 -44 -42 -44c-14 0 -25 6 -36 16z" />
    <glyph glyph-name="eacute" unicode="&#xe9;" horiz-adv-x="426" 
d="M166 340h106v45c0 41 -13 73 -53 73s-53 -32 -53 -73v-45zM38 214v113c0 138 20 227 186 227c127 0 170 -71 170 -213c0 -49 -6 -87 -68 -87h-160v-55c0 -65 5 -116 55 -116c26 0 46 27 47 56c2 53 26 65 60 65c36 0 62 -12 62 -60c0 -98 -67 -157 -166 -157
c-166 0 -186 89 -186 227zM165 666l84 85c14 14 23 16 39 16c21 0 44 -16 44 -43c0 -18 -12 -34 -25 -46l-79 -73c-11 -10 -22 -16 -36 -16c-26 0 -42 19 -42 44c0 12 6 24 15 33z" />
    <glyph glyph-name="ecircumflex" unicode="&#xea;" horiz-adv-x="426" 
d="M166 340h106v45c0 41 -13 73 -53 73s-53 -32 -53 -73v-45zM38 214v113c0 138 20 227 186 227c127 0 170 -71 170 -213c0 -49 -6 -87 -68 -87h-160v-55c0 -65 5 -116 55 -116c26 0 46 27 47 56c2 53 26 65 60 65c36 0 62 -12 62 -60c0 -98 -67 -157 -166 -157
c-166 0 -186 89 -186 227zM103 661l43 65c22 33 43 41 73 41s51 -8 73 -41l43 -65c9 -13 12 -20 12 -31c0 -24 -18 -41 -44 -41c-17 0 -28 9 -36 22l-48 80l-48 -80c-8 -13 -19 -22 -36 -22c-26 0 -44 17 -44 41c0 11 3 18 12 31z" />
    <glyph glyph-name="edieresis" unicode="&#xeb;" horiz-adv-x="426" 
d="M166 340h106v45c0 41 -13 73 -53 73s-53 -32 -53 -73v-45zM38 214v113c0 138 20 227 186 227c127 0 170 -71 170 -213c0 -49 -6 -87 -68 -87h-160v-55c0 -65 5 -116 55 -116c26 0 46 27 47 56c2 53 26 65 60 65c36 0 62 -12 62 -60c0 -98 -67 -157 -166 -157
c-166 0 -186 89 -186 227zM59 666c0 37 30 67 67 67s67 -30 67 -67s-30 -67 -67 -67s-67 30 -67 67zM245 666c0 37 30 67 67 67s67 -30 67 -67s-30 -67 -67 -67s-67 30 -67 67z" />
    <glyph glyph-name="igrave" unicode="&#xec;" 
d="M59 60v421c0 50 24 73 61 73s61 -23 61 -73v-421c0 -50 -24 -73 -61 -73s-61 23 -61 73zM111 605l-79 73c-13 12 -25 28 -25 46c0 27 23 43 44 43c16 0 25 -2 39 -16l84 -85c9 -9 15 -21 15 -33c0 -25 -16 -44 -42 -44c-14 0 -25 6 -36 16z" />
    <glyph glyph-name="iacute" unicode="&#xed;" 
d="M59 60v421c0 50 24 73 61 73s61 -23 61 -73v-421c0 -50 -24 -73 -61 -73s-61 23 -61 73zM66 666l84 85c14 14 23 16 39 16c21 0 44 -16 44 -43c0 -18 -12 -34 -25 -46l-79 -73c-11 -10 -22 -16 -36 -16c-26 0 -42 19 -42 44c0 12 6 24 15 33z" />
    <glyph glyph-name="icircumflex" unicode="&#xee;" 
d="M59 60v421c0 50 24 73 61 73s61 -23 61 -73v-421c0 -50 -24 -73 -61 -73s-61 23 -61 73zM4 661l43 65c22 33 43 41 73 41s51 -8 73 -41l43 -65c9 -13 12 -20 12 -31c0 -24 -18 -41 -44 -41c-17 0 -28 9 -36 22l-48 80l-48 -80c-8 -13 -19 -22 -36 -22
c-26 0 -44 17 -44 41c0 11 3 18 12 31z" />
    <glyph glyph-name="idieresis" unicode="&#xef;" 
d="M59 60v421c0 50 24 73 61 73s61 -23 61 -73v-421c0 -50 -24 -73 -61 -73s-61 23 -61 73zM-40 666c0 37 30 67 67 67s67 -30 67 -67s-30 -67 -67 -67s-67 30 -67 67zM146 666c0 37 30 67 67 67s67 -30 67 -67s-30 -67 -67 -67s-67 30 -67 67z" />
    <glyph glyph-name="eth" unicode="&#xf0;" horiz-adv-x="444" 
d="M166 295v-111c0 -89 13 -111 56 -111s56 22 56 111v111c0 90 -13 111 -56 111s-56 -21 -56 -111zM38 174v131c0 104 38 187 172 187c33 0 56 -15 71 -35l2 2c-7 54 -22 95 -46 138l-47 -25c-12 -6 -25 -14 -47 -14c-20 0 -35 12 -35 30c0 22 10 34 34 46l38 19
c-33 30 -86 30 -86 64c0 30 22 41 47 41c53 0 92 -21 131 -57l42 22c12 6 25 14 47 14c20 0 35 -12 35 -30c0 -22 -10 -34 -34 -46l-37 -20c52 -69 81 -169 81 -262v-205c0 -103 -38 -187 -184 -187s-184 84 -184 187z" />
    <glyph glyph-name="ntilde" unicode="&#xf1;" horiz-adv-x="463" 
d="M54 60v421c0 50 24 73 61 73s61 -23 61 -70h2c20 47 67 70 114 70c68 0 117 -42 117 -134v-360c0 -50 -24 -73 -61 -73s-61 23 -61 73v331c0 40 -21 57 -47 57c-39 0 -64 -29 -64 -97v-291c0 -50 -24 -73 -61 -73s-61 23 -61 73zM73 635c0 39 53 85 98 85
c50 0 96 -26 117 -26c31 0 46 35 75 35c23 0 40 -15 40 -36c0 -41 -47 -90 -97 -90c-19 0 -109 26 -123 26c-27 0 -39 -34 -67 -34c-24 0 -43 15 -43 40z" />
    <glyph glyph-name="ograve" unicode="&#xf2;" horiz-adv-x="444" 
d="M166 336v-129c0 -100 16 -124 56 -124s56 24 56 124v129c0 98 -20 122 -56 122s-56 -24 -56 -122zM38 197v147c0 116 38 210 184 210s184 -94 184 -210v-147c0 -116 -38 -210 -184 -210s-184 94 -184 210zM213 605l-79 73c-13 12 -25 28 -25 46c0 27 23 43 44 43
c16 0 25 -2 39 -16l84 -85c9 -9 15 -21 15 -33c0 -25 -16 -44 -42 -44c-14 0 -25 6 -36 16z" />
    <glyph glyph-name="oacute" unicode="&#xf3;" horiz-adv-x="444" 
d="M166 336v-129c0 -100 16 -124 56 -124s56 24 56 124v129c0 98 -20 122 -56 122s-56 -24 -56 -122zM38 197v147c0 116 38 210 184 210s184 -94 184 -210v-147c0 -116 -38 -210 -184 -210s-184 94 -184 210zM168 666l84 85c14 14 23 16 39 16c21 0 44 -16 44 -43
c0 -18 -12 -34 -25 -46l-79 -73c-11 -10 -22 -16 -36 -16c-26 0 -42 19 -42 44c0 12 6 24 15 33z" />
    <glyph glyph-name="ocircumflex" unicode="&#xf4;" horiz-adv-x="444" 
d="M166 336v-129c0 -100 16 -124 56 -124s56 24 56 124v129c0 98 -20 122 -56 122s-56 -24 -56 -122zM38 197v147c0 116 38 210 184 210s184 -94 184 -210v-147c0 -116 -38 -210 -184 -210s-184 94 -184 210zM106 661l43 65c22 33 43 41 73 41s51 -8 73 -41l43 -65
c9 -13 12 -20 12 -31c0 -24 -18 -41 -44 -41c-17 0 -28 9 -36 22l-48 80l-48 -80c-8 -13 -19 -22 -36 -22c-26 0 -44 17 -44 41c0 11 3 18 12 31z" />
    <glyph glyph-name="otilde" unicode="&#xf5;" horiz-adv-x="444" 
d="M166 336v-129c0 -100 16 -124 56 -124s56 24 56 124v129c0 98 -20 122 -56 122s-56 -24 -56 -122zM38 197v147c0 116 38 210 184 210s184 -94 184 -210v-147c0 -116 -38 -210 -184 -210s-184 94 -184 210zM57 635c0 39 53 85 98 85c50 0 96 -26 117 -26c31 0 46 35 75 35
c23 0 40 -15 40 -36c0 -41 -47 -90 -97 -90c-19 0 -109 26 -123 26c-27 0 -39 -34 -67 -34c-24 0 -43 15 -43 40z" />
    <glyph glyph-name="odieresis" unicode="&#xf6;" horiz-adv-x="444" 
d="M166 336v-129c0 -100 16 -124 56 -124s56 24 56 124v129c0 98 -20 122 -56 122s-56 -24 -56 -122zM38 197v147c0 116 38 210 184 210s184 -94 184 -210v-147c0 -116 -38 -210 -184 -210s-184 94 -184 210zM62 666c0 37 30 67 67 67s67 -30 67 -67s-30 -67 -67 -67
s-67 30 -67 67zM248 666c0 37 30 67 67 67s67 -30 67 -67s-30 -67 -67 -67s-67 30 -67 67z" />
    <glyph glyph-name="divide" unicode="&#xf7;" horiz-adv-x="600" 
d="M87 336h426c42 0 70 -24 70 -53s-28 -53 -70 -53h-426c-42 0 -70 24 -70 53s28 53 70 53zM224 495c0 42 34 76 76 76s76 -34 76 -76s-34 -76 -76 -76s-76 34 -76 76zM224 71c0 42 34 76 76 76s76 -34 76 -76s-34 -76 -76 -76s-76 34 -76 76z" />
    <glyph glyph-name="oslash" unicode="&#xf8;" horiz-adv-x="444" 
d="M168 222l106 177c-8 46 -26 59 -52 59c-36 0 -56 -24 -56 -122v-114h2zM44 21l24 40c-22 36 -30 84 -30 136v147c0 116 38 210 184 210c55 0 95 -13 124 -37l18 30c8 13 17 18 28 18c7 0 18 -8 18 -18c0 -5 -3 -15 -10 -27l-24 -40c22 -36 30 -84 30 -136v-147
c0 -116 -38 -210 -184 -210c-56 0 -97 14 -124 38l-18 -30c-9 -14 -18 -20 -25 -20c-10 0 -21 8 -21 19c0 8 2 14 10 27zM276 320l-106 -178c7 -46 23 -59 52 -59c40 0 56 24 56 124v113h-2z" />
    <glyph glyph-name="ugrave" unicode="&#xf9;" horiz-adv-x="463" 
d="M54 121v360c0 50 24 73 61 73s61 -23 61 -73v-331c0 -40 17 -57 47 -57c43 0 64 29 64 97v291c0 50 24 73 61 73s61 -23 61 -73v-421c0 -50 -24 -73 -61 -73s-61 23 -61 70h-2c-20 -47 -67 -70 -114 -70c-68 0 -117 42 -117 134zM229 605l-79 73c-13 12 -25 28 -25 46
c0 27 23 43 44 43c16 0 25 -2 39 -16l84 -85c9 -9 15 -21 15 -33c0 -25 -16 -44 -42 -44c-14 0 -25 6 -36 16z" />
    <glyph glyph-name="uacute" unicode="&#xfa;" horiz-adv-x="463" 
d="M54 121v360c0 50 24 73 61 73s61 -23 61 -73v-331c0 -40 17 -57 47 -57c43 0 64 29 64 97v291c0 50 24 73 61 73s61 -23 61 -73v-421c0 -50 -24 -73 -61 -73s-61 23 -61 70h-2c-20 -47 -67 -70 -114 -70c-68 0 -117 42 -117 134zM184 666l84 85c14 14 23 16 39 16
c21 0 44 -16 44 -43c0 -18 -12 -34 -25 -46l-79 -73c-11 -10 -22 -16 -36 -16c-26 0 -42 19 -42 44c0 12 6 24 15 33z" />
    <glyph glyph-name="ucircumflex" unicode="&#xfb;" horiz-adv-x="463" 
d="M54 121v360c0 50 24 73 61 73s61 -23 61 -73v-331c0 -40 17 -57 47 -57c43 0 64 29 64 97v291c0 50 24 73 61 73s61 -23 61 -73v-421c0 -50 -24 -73 -61 -73s-61 23 -61 70h-2c-20 -47 -67 -70 -114 -70c-68 0 -117 42 -117 134zM122 661l43 65c22 33 43 41 73 41
s51 -8 73 -41l43 -65c9 -13 12 -20 12 -31c0 -24 -18 -41 -44 -41c-17 0 -28 9 -36 22l-48 80l-48 -80c-8 -13 -19 -22 -36 -22c-26 0 -44 17 -44 41c0 11 3 18 12 31z" />
    <glyph glyph-name="udieresis" unicode="&#xfc;" horiz-adv-x="463" 
d="M54 121v360c0 50 24 73 61 73s61 -23 61 -73v-331c0 -40 17 -57 47 -57c43 0 64 29 64 97v291c0 50 24 73 61 73s61 -23 61 -73v-421c0 -50 -24 -73 -61 -73s-61 23 -61 70h-2c-20 -47 -67 -70 -114 -70c-68 0 -117 42 -117 134zM78 666c0 37 30 67 67 67s67 -30 67 -67
s-30 -67 -67 -67s-67 30 -67 67zM264 666c0 37 30 67 67 67s67 -30 67 -67s-30 -67 -67 -67s-67 30 -67 67z" />
    <glyph glyph-name="yacute" unicode="&#xfd;" horiz-adv-x="426" 
d="M146 -44l-122 509c-2 11 -5 24 -5 32c0 35 25 57 65 57c31 0 57 -13 63 -47l71 -377h2l60 357c7 40 22 67 66 67c35 0 61 -20 61 -54c0 -7 -2 -19 -7 -39l-127 -535c-25 -106 -50 -133 -153 -133c-46 0 -57 27 -57 53c0 25 9 42 48 46c21 2 39 3 39 34c0 9 -1 19 -4 30z
M159 666l84 85c14 14 23 16 39 16c21 0 44 -16 44 -43c0 -18 -12 -34 -25 -46l-79 -73c-11 -10 -22 -16 -36 -16c-26 0 -42 19 -42 44c0 12 6 24 15 33z" />
    <glyph glyph-name="thorn" unicode="&#xfe;" horiz-adv-x="463" 
d="M181 322v-107c0 -77 13 -132 61 -132c45 0 51 52 51 142v76c0 119 -11 152 -52 152c-29 0 -60 -22 -60 -131zM59 -134v794c0 50 24 73 61 73s61 -23 61 -73v-179h2c21 47 66 73 108 73c110 0 130 -100 130 -211v-145c0 -111 -20 -211 -130 -211c-46 0 -86 20 -108 61
l-2 2v-184c0 -50 -24 -73 -61 -73s-61 23 -61 73z" />
    <glyph glyph-name="ydieresis" unicode="&#xff;" horiz-adv-x="426" 
d="M146 -44l-122 509c-2 11 -5 24 -5 32c0 35 25 57 65 57c31 0 57 -13 63 -47l71 -377h2l60 357c7 40 22 67 66 67c35 0 61 -20 61 -54c0 -7 -2 -19 -7 -39l-127 -535c-25 -106 -50 -133 -153 -133c-46 0 -57 27 -57 53c0 25 9 42 48 46c21 2 39 3 39 34c0 9 -1 19 -4 30z
M53 666c0 37 30 67 67 67s67 -30 67 -67s-30 -67 -67 -67s-67 30 -67 67zM239 666c0 37 30 67 67 67s67 -30 67 -67s-30 -67 -67 -67s-67 30 -67 67z" />
    <glyph glyph-name="dotlessi" unicode="&#x131;" 
d="M59 60v421c0 50 24 73 61 73s61 -23 61 -73v-421c0 -50 -24 -73 -61 -73s-61 23 -61 73z" />
    <glyph glyph-name="Lslash" unicode="&#x141;" horiz-adv-x="481" 
d="M56 72v160c-9 -6 -20 -9 -31 -9c-26 0 -47 17 -47 47c0 15 5 33 31 52l47 34v308c0 42 31 69 67 69s67 -27 67 -69v-210l70 51c13 10 28 16 44 16c26 0 47 -17 47 -47c0 -15 -5 -33 -31 -52l-130 -95v-207h201c50 0 70 -26 70 -60s-20 -60 -70 -60h-263
c-49 0 -72 22 -72 72z" />
    <glyph glyph-name="lslash" unicode="&#x142;" 
d="M59 60v204c-9 -6 -19 -10 -32 -10c-28 0 -46 21 -46 43c0 15 7 32 26 50l52 42v271c0 50 24 73 61 73s61 -23 61 -73v-175c8 6 18 10 32 10c28 0 46 -21 46 -43c0 -15 -7 -32 -26 -50l-52 -41v-301c0 -50 -24 -73 -61 -73s-61 23 -61 73z" />
    <glyph glyph-name="OE" unicode="&#x152;" horiz-adv-x="796" 
d="M40 290v152c0 264 108 295 220 295c47 0 91 -11 118 -39v-2h2c5 14 25 24 46 24h266c50 0 70 -26 70 -60s-20 -60 -70 -60h-218v-166h203c50 0 70 -26 70 -60s-20 -60 -70 -60h-203v-194h218c50 0 70 -26 70 -60s-20 -60 -70 -60h-243c-46 0 -64 9 -71 21
c-25 -26 -69 -38 -118 -38c-124 0 -220 36 -220 307zM180 442v-152c0 -176 26 -201 80 -201s80 25 80 201v152c0 155 -27 189 -80 189s-80 -34 -80 -189z" />
    <glyph glyph-name="oe" unicode="&#x153;" horiz-adv-x="667" 
d="M174 315v-89c0 -87 6 -143 56 -143s55 49 55 131v113c0 82 -5 131 -55 131s-56 -56 -56 -143zM407 340h106v45c0 41 -13 73 -53 73s-53 -32 -53 -73v-45zM46 213v134c0 128 50 207 178 207c44 0 93 -16 127 -42v1c33 26 73 41 114 41c127 0 170 -71 170 -213
c0 -49 -6 -87 -68 -87h-160v-55c0 -65 5 -116 55 -116c26 0 46 27 47 56c2 53 26 65 60 65c36 0 62 -12 62 -60c0 -98 -67 -157 -166 -157c-56 0 -100 16 -129 43c-27 -30 -75 -43 -115 -43c-135 0 -175 84 -175 226z" />
    <glyph glyph-name="Scaron" unicode="&#x160;" horiz-adv-x="500" 
d="M261 280l-129 91c-70 50 -91 105 -91 178c0 127 98 188 212 188c150 0 199 -107 199 -181c0 -45 -28 -68 -66 -68c-54 0 -62 25 -68 76c-6 50 -34 67 -72 67c-41 0 -71 -26 -71 -69c0 -33 6 -63 72 -107l99 -65c73 -48 117 -100 117 -205c0 -124 -74 -202 -228 -202
c-176 0 -198 156 -198 191c0 48 11 91 68 91c42 0 62 -23 66 -87c3 -49 26 -89 80 -89c53 0 78 38 78 84c0 49 -19 72 -68 107zM177 809l-43 65c-9 13 -12 20 -12 31c0 24 18 41 44 41c17 0 28 -9 36 -22l48 -80l48 80c8 13 19 22 36 22c26 0 44 -17 44 -41
c0 -11 -3 -18 -12 -31l-43 -65c-22 -33 -43 -41 -73 -41s-51 8 -73 41z" />
    <glyph glyph-name="scaron" unicode="&#x161;" horiz-adv-x="407" 
d="M211 196l-93 69c-70 52 -82 86 -82 143c0 98 69 146 167 146c130 0 164 -89 164 -133c0 -36 -15 -60 -64 -60c-33 0 -48 17 -50 47c-2 37 -22 55 -53 55c-25 0 -42 -16 -42 -42c0 -18 7 -37 27 -52l75 -57c76 -57 116 -93 116 -166c0 -106 -77 -159 -177 -159
c-131 0 -168 86 -168 149c0 46 29 61 58 61c45 0 60 -24 64 -75c2 -23 15 -44 53 -44c32 0 48 18 48 50c0 27 -9 42 -43 68zM131 630l-43 65c-9 13 -12 20 -12 31c0 24 18 41 44 41c17 0 28 -9 36 -22l48 -80l48 80c8 13 19 22 36 22c26 0 44 -17 44 -41
c0 -11 -3 -18 -12 -31l-43 -65c-22 -33 -43 -41 -73 -41s-51 8 -73 41z" />
    <glyph glyph-name="Ydieresis" unicode="&#x178;" horiz-adv-x="481" 
d="M174 56v240l-146 329c-9 21 -12 36 -12 47c0 43 32 61 66 61c42 0 54 -13 73 -63l86 -228l91 238c17 45 39 53 69 53c38 0 64 -27 64 -54c0 -14 -4 -28 -10 -41l-147 -335v-247c0 -42 -31 -69 -67 -69s-67 27 -67 69zM81 845c0 37 30 67 67 67s67 -30 67 -67
s-30 -67 -67 -67s-67 30 -67 67zM267 845c0 37 30 67 67 67s67 -30 67 -67s-30 -67 -67 -67s-67 30 -67 67z" />
    <glyph glyph-name="Zcaron" unicode="&#x17d;" horiz-adv-x="519" 
d="M317 600h-207c-50 0 -70 26 -70 60s20 60 70 60h308c45 0 71 -19 71 -59c0 -20 -8 -43 -25 -71l-273 -470h235c50 0 70 -26 70 -60s-20 -60 -70 -60h-333c-47 0 -70 34 -70 63c0 18 4 30 22 61zM187 809l-43 65c-9 13 -12 20 -12 31c0 24 18 41 44 41c17 0 28 -9 36 -22
l48 -80l48 80c8 13 19 22 36 22c26 0 44 -17 44 -41c0 -11 -3 -18 -12 -31l-43 -65c-22 -33 -43 -41 -73 -41s-51 8 -73 41z" />
    <glyph glyph-name="zcaron" unicode="&#x17e;" horiz-adv-x="426" 
d="M89 541h245c43 0 63 -15 63 -42c0 -21 -5 -33 -22 -63l-193 -330h157c40 0 61 -17 61 -52c0 -36 -21 -54 -61 -54h-254c-42 0 -59 18 -59 51c0 22 8 38 17 54l193 330h-147c-40 0 -61 17 -61 52c0 36 21 54 61 54zM140 630l-43 65c-9 13 -12 20 -12 31c0 24 18 41 44 41
c17 0 28 -9 36 -22l48 -80l48 80c8 13 19 22 36 22c26 0 44 -17 44 -41c0 -11 -3 -18 -12 -31l-43 -65c-22 -33 -43 -41 -73 -41s-51 8 -73 41z" />
    <glyph glyph-name="florin" unicode="&#x192;" horiz-adv-x="480" 
d="M161 300h-64c-34 0 -47 24 -47 43s13 43 47 43h72l22 194c10 91 50 140 147 140c50 0 74 -24 74 -59c0 -34 -14 -53 -47 -55c-36 -2 -44 -18 -49 -57l-19 -163h68c34 0 47 -24 47 -43s-13 -43 -47 -43h-76l-30 -288c-9 -89 -47 -161 -145 -161c-59 0 -84 28 -84 60
c0 31 11 51 60 54c29 1 40 24 46 88z" />
    <glyph glyph-name="circumflex" unicode="&#x2c6;" 
d="M4 661l43 65c22 33 43 41 73 41s51 -8 73 -41l43 -65c9 -13 12 -20 12 -31c0 -24 -18 -41 -44 -41c-17 0 -28 9 -36 22l-48 80l-48 -80c-8 -13 -19 -22 -36 -22c-26 0 -44 17 -44 41c0 11 3 18 12 31z" />
    <glyph glyph-name="caron" unicode="&#x2c7;" 
d="M47 630l-43 65c-9 13 -12 20 -12 31c0 24 18 41 44 41c17 0 28 -9 36 -22l48 -80l48 80c8 13 19 22 36 22c26 0 44 -17 44 -41c0 -11 -3 -18 -12 -31l-43 -65c-22 -33 -43 -41 -73 -41s-51 8 -73 41z" />
    <glyph glyph-name="uni02C9" unicode="&#x2c9;" 
d="M1 707h238c33 0 49 -16 49 -43s-16 -43 -49 -43h-238c-33 0 -49 16 -49 43s16 43 49 43z" />
    <glyph glyph-name="breve" unicode="&#x2d8;" 
d="M-15 728c0 23 15 39 37 39c14 0 27 -8 37 -29c16 -34 29 -46 61 -46s45 12 61 46c10 21 23 29 37 29c22 0 37 -16 37 -39c0 -32 -40 -117 -135 -117s-135 85 -135 117z" />
    <glyph glyph-name="dotaccent" unicode="&#x2d9;" 
d="M53 666c0 37 30 67 67 67s67 -30 67 -67s-30 -67 -67 -67s-67 30 -67 67z" />
    <glyph glyph-name="ring" unicode="&#x2da;" 
d="M14 695c0 59 47 106 106 106s106 -47 106 -106s-47 -106 -106 -106s-106 47 -106 106zM72 695c0 -27 21 -48 48 -48s48 21 48 48s-21 48 -48 48s-48 -21 -48 -48z" />
    <glyph glyph-name="ogonek" unicode="&#x2db;" 
d="M145 0h50c-46 -34 -63 -78 -63 -110c0 -29 12 -46 37 -46c19 0 34 11 44 11c13 0 22 -13 22 -28c0 -21 -21 -43 -84 -43c-67 0 -100 33 -100 89c0 54 41 104 94 127z" />
    <glyph glyph-name="tilde" unicode="&#x2dc;" 
d="M-45 635c0 39 53 85 98 85c50 0 96 -26 117 -26c31 0 46 35 75 35c23 0 40 -15 40 -36c0 -41 -47 -90 -97 -90c-19 0 -109 26 -123 26c-27 0 -39 -34 -67 -34c-24 0 -43 15 -43 40z" />
    <glyph glyph-name="hungarumlaut" unicode="&#x2dd;" 
d="M-32 666l84 85c14 14 23 16 39 16c21 0 44 -16 44 -43c0 -18 -12 -34 -25 -46l-79 -73c-11 -10 -22 -16 -36 -16c-26 0 -42 19 -42 44c0 12 6 24 15 33zM164 666l84 85c14 14 23 16 39 16c21 0 44 -16 44 -43c0 -18 -12 -34 -25 -46l-79 -73c-11 -10 -22 -16 -36 -16
c-26 0 -42 19 -42 44c0 12 6 24 15 33z" />
    <glyph glyph-name="uni03A9" unicode="&#x3a9;" horiz-adv-x="601" 
d="M147 97v3c-53 63 -103 164 -103 292c0 180 104 325 259 325c167 0 251 -169 251 -317c0 -130 -53 -241 -105 -300v-3h117v-97h-223v70c49 40 97 141 97 303c0 125 -45 243 -139 243c-89 0 -143 -104 -143 -248c0 -148 48 -259 96 -298v-70h-223v97h116z" />
    <glyph glyph-name="uni03BC" unicode="&#x3bc;" horiz-adv-x="463" 
d="M54 -134v615c0 50 24 73 61 73s61 -23 61 -73v-331c0 -40 17 -57 47 -57c43 0 64 29 64 97v291c0 50 24 73 61 73s61 -23 61 -73v-421c0 -50 -24 -73 -61 -73s-61 23 -61 70h-2c-7 -16 -20 -34 -36 -47c-17 -14 -36 -23 -55 -23c-6 0 -14 3 -16 9h-2v-130
c0 -50 -24 -73 -61 -73s-61 23 -61 73z" />
    <glyph glyph-name="pi" unicode="&#x3c0;" horiz-adv-x="526" 
d="M505 429h-62v-289c0 -70 5 -110 12 -140h-108c-10 22 -15 69 -15 138v291h-120c-4 -107 -25 -314 -58 -429h-107c31 123 53 317 55 429c-43 0 -66 -4 -83 -9l-13 79c22 18 70 32 143 32h364z" />
    <glyph glyph-name="endash" unicode="&#x2013;" horiz-adv-x="500" 
d="M428 226h-356c-43 0 -62 27 -62 57s19 57 62 57h356c43 0 62 -27 62 -57s-19 -57 -62 -57z" />
    <glyph glyph-name="emdash" unicode="&#x2014;" horiz-adv-x="1000" 
d="M928 226h-856c-43 0 -62 27 -62 57s19 57 62 57h856c43 0 62 -27 62 -57s-19 -57 -62 -57z" />
    <glyph glyph-name="quoteleft" unicode="&#x2018;" horiz-adv-x="222" 
d="M31 552c0 107 77 181 133 181c16 0 27 -13 27 -25c0 -15 -6 -21 -26 -28c-24 -8 -62 -38 -70 -73c9 1 15 1 21 1c55 0 75 -45 75 -73c0 -43 -33 -79 -80 -79c-55 0 -80 52 -80 96z" />
    <glyph glyph-name="quoteright" unicode="&#x2019;" horiz-adv-x="222" 
d="M31 654c0 43 33 79 80 79c55 0 80 -52 80 -96c0 -107 -77 -181 -133 -181c-16 0 -27 13 -27 25c0 15 6 21 26 28c24 8 62 38 70 73c-9 -1 -15 -1 -21 -1c-55 0 -75 45 -75 73z" />
    <glyph glyph-name="quotesinglbase" unicode="&#x201a;" horiz-adv-x="222" 
d="M31 60c0 43 33 79 80 79c55 0 80 -52 80 -96c0 -107 -77 -181 -133 -181c-16 0 -27 13 -27 25c0 15 6 21 26 28c24 8 62 38 70 73c-9 -1 -15 -1 -21 -1c-55 0 -75 45 -75 73z" />
    <glyph glyph-name="quotedblleft" unicode="&#x201c;" horiz-adv-x="426" 
d="M230 552c0 107 77 181 133 181c16 0 27 -13 27 -25c0 -15 -6 -21 -26 -28c-24 -8 -62 -38 -70 -73c9 1 15 1 21 1c55 0 75 -45 75 -73c0 -43 -33 -79 -80 -79c-55 0 -80 52 -80 96zM36 552c0 107 77 181 133 181c16 0 27 -13 27 -25c0 -15 -6 -21 -26 -28
c-24 -8 -62 -38 -70 -73c9 1 15 1 21 1c55 0 75 -45 75 -73c0 -43 -33 -79 -80 -79c-55 0 -80 52 -80 96z" />
    <glyph glyph-name="quotedblright" unicode="&#x201d;" horiz-adv-x="426" 
d="M36 654c0 43 33 79 80 79c55 0 80 -52 80 -96c0 -107 -77 -181 -133 -181c-16 0 -27 13 -27 25c0 15 6 21 26 28c24 8 62 38 70 73c-9 -1 -15 -1 -21 -1c-55 0 -75 45 -75 73zM230 654c0 43 33 79 80 79c55 0 80 -52 80 -96c0 -107 -77 -181 -133 -181
c-16 0 -27 13 -27 25c0 15 6 21 26 28c24 8 62 38 70 73c-9 -1 -15 -1 -21 -1c-55 0 -75 45 -75 73z" />
    <glyph glyph-name="quotedblbase" unicode="&#x201e;" horiz-adv-x="426" 
d="M36 60c0 43 33 79 80 79c55 0 80 -52 80 -96c0 -107 -77 -181 -133 -181c-16 0 -27 13 -27 25c0 15 6 21 26 28c24 8 62 38 70 73c-9 -1 -15 -1 -21 -1c-55 0 -75 45 -75 73zM230 60c0 43 33 79 80 79c55 0 80 -52 80 -96c0 -107 -77 -181 -133 -181c-16 0 -27 13 -27 25
c0 15 6 21 26 28c24 8 62 38 70 73c-9 -1 -15 -1 -21 -1c-55 0 -75 45 -75 73z" />
    <glyph glyph-name="dagger" unicode="&#x2020;" horiz-adv-x="480" 
d="M179 380h-102c-41 0 -58 22 -58 53s17 53 58 53h102v174c0 50 24 73 61 73s61 -23 61 -73v-174h102c41 0 58 -22 58 -53s-17 -53 -58 -53h-102v-494c0 -50 -24 -73 -61 -73s-61 23 -61 73v494z" />
    <glyph glyph-name="daggerdbl" unicode="&#x2021;" horiz-adv-x="480" 
d="M179 134v278h-102c-41 0 -58 22 -58 53s17 53 58 53h102v142c0 50 24 73 61 73s61 -23 61 -73v-142h102c41 0 58 -22 58 -53s-17 -53 -58 -53h-102v-278h102c41 0 58 -22 58 -53s-17 -53 -58 -53h-102v-142c0 -50 -24 -73 -61 -73s-61 23 -61 73v142h-102
c-41 0 -58 22 -58 53s17 53 58 53h102z" />
    <glyph glyph-name="bullet" unicode="&#x2022;" horiz-adv-x="500" 
d="M70 360c0 99 81 180 180 180s180 -81 180 -180s-81 -180 -180 -180s-180 81 -180 180z" />
    <glyph glyph-name="ellipsis" unicode="&#x2026;" horiz-adv-x="1000" 
d="M91 63c0 42 34 76 76 76s76 -34 76 -76s-34 -76 -76 -76s-76 34 -76 76zM424 63c0 42 34 76 76 76s76 -34 76 -76s-34 -76 -76 -76s-76 34 -76 76zM757 63c0 42 34 76 76 76s76 -34 76 -76s-34 -76 -76 -76s-76 34 -76 76z" />
    <glyph glyph-name="perthousand" unicode="&#x2030;" horiz-adv-x="1000" 
d="M458 161c0 -68 6 -98 48 -98s48 30 48 98s-6 98 -48 98s-48 -30 -48 -98zM362 168c0 107 37 167 144 167s144 -60 144 -167c0 -103 -17 -181 -144 -181s-144 78 -144 181zM792 161c0 -68 6 -98 48 -98s48 30 48 98s-6 98 -48 98s-48 -30 -48 -98zM696 168
c0 107 37 167 144 167s144 -60 144 -167c0 -103 -17 -181 -144 -181s-144 78 -144 181zM112 546c0 -68 6 -98 48 -98s48 30 48 98s-6 98 -48 98s-48 -30 -48 -98zM16 553c0 107 37 167 144 167s144 -60 144 -167c0 -103 -17 -181 -144 -181s-144 78 -144 181zM576 684
l-413 -694c-14 -23 -27 -28 -43 -28c-22 0 -37 16 -37 31c0 9 3 18 10 30l413 694c14 23 27 28 43 28c22 0 37 -16 37 -31c0 -9 -3 -18 -10 -30z" />
    <glyph glyph-name="guilsinglleft" unicode="&#x2039;" horiz-adv-x="259" 
d="M121 283l73 -64c16 -14 27 -25 27 -38c0 -29 -22 -44 -44 -44c-13 0 -22 5 -31 14l-72 65c-29 26 -36 43 -36 67s7 41 36 67l72 65c9 9 18 14 31 14c22 0 44 -15 44 -44c0 -13 -11 -24 -27 -38z" />
    <glyph glyph-name="guilsinglright" unicode="&#x203a;" horiz-adv-x="259" 
d="M138 283l-73 64c-16 14 -27 25 -27 38c0 29 22 44 44 44c13 0 22 -5 31 -14l72 -65c29 -26 36 -43 36 -67s-7 -41 -36 -67l-72 -65c-9 -9 -18 -14 -31 -14c-22 0 -44 15 -44 44c0 13 11 24 27 38z" />
    <glyph glyph-name="fraction" unicode="&#x2044;" horiz-adv-x="167" 
d="M-104 22l303 697c7 15 20 26 43 26c24 0 35 -16 35 -31c0 -10 -2 -20 -6 -29l-303 -697c-7 -15 -20 -26 -43 -26c-24 0 -35 16 -35 31c0 10 2 20 6 29z" />
    <glyph glyph-name="Euro" unicode="&#x20ac;" horiz-adv-x="480" 
d="M486 634c0 -31 -20 -56 -51 -56c-42 0 -60 36 -120 36c-62 0 -96 -72 -111 -150h133c29 0 56 -2 56 -38s-25 -41 -56 -41h-143v-56h116c29 0 56 -2 56 -38s-25 -41 -56 -41h-108c13 -83 45 -157 114 -157c54 0 85 42 124 42c28 0 44 -22 44 -52c0 -82 -121 -96 -182 -96
c-139 0 -214 110 -236 263c-28 0 -55 4 -55 39c0 33 24 39 49 40v17c0 13 0 26 1 39c-27 0 -51 5 -51 39c0 37 31 41 60 40c26 145 104 255 237 255c72 0 179 -9 179 -85z" />
    <glyph glyph-name="afii61289" unicode="&#x2113;" horiz-adv-x="446" 
d="M387 169l45 -47c-44 -95 -108 -131 -177 -131c-115 0 -157 81 -161 172v13c-14 -13 -32 -28 -47 -41l-27 62c27 26 51 46 73 70v264c0 171 74 246 158 246c82 0 119 -74 119 -175c0 -116 -66 -232 -168 -346v-52c0 -84 33 -121 78 -121c46 0 83 43 107 86zM202 520v-154
c60 80 103 169 103 243c0 53 -13 82 -48 82c-27 0 -55 -38 -55 -171z" />
    <glyph glyph-name="trademark" unicode="&#x2122;" horiz-adv-x="1000" 
d="M142 364v265h-66c-36 0 -49 25 -49 46c0 20 13 45 49 45h247c36 0 48 -25 48 -45c0 -21 -12 -46 -48 -46h-67v-265c0 -53 -42 -65 -57 -65s-57 12 -57 65zM828 364v207h-2l-91 -219c-14 -35 -32 -53 -57 -53s-43 18 -57 53l-91 219h-2v-207c0 -39 -24 -65 -53 -65
s-53 26 -53 65v272c0 72 49 90 84 90c52 0 86 -24 107 -77l65 -167l65 167c21 53 55 77 107 77c35 0 84 -18 84 -90v-272c0 -39 -24 -65 -53 -65s-53 26 -53 65z" />
    <glyph glyph-name="Omega" unicode="&#x2126;" horiz-adv-x="601" 
d="M147 97v3c-53 63 -103 164 -103 292c0 180 104 325 259 325c167 0 251 -169 251 -317c0 -130 -53 -241 -105 -300v-3h117v-97h-223v70c49 40 97 141 97 303c0 125 -45 243 -139 243c-89 0 -143 -104 -143 -248c0 -148 48 -259 96 -298v-70h-223v97h116z" />
    <glyph glyph-name="estimated" unicode="&#x212e;" horiz-adv-x="884" 
d="M849 343h-660c-3 0 -5 -1 -5 -4v-200c0 -8 3 -16 9 -22c63 -67 151 -109 249 -109c105 0 198 48 262 122h59c-73 -86 -191 -142 -322 -142c-225 0 -407 163 -407 365c0 203 182 367 407 367s408 -164 408 -367v-10zM699 369v201c0 9 -3 17 -10 24
c-64 63 -151 104 -247 104c-97 0 -184 -42 -248 -108c-7 -6 -10 -15 -10 -24v-197c0 -2 2 -6 5 -6h506c3 0 4 4 4 6z" />
    <glyph glyph-name="partialdiff" unicode="&#x2202;" horiz-adv-x="506" 
d="M94 652l-31 91c29 24 79 55 158 55c123 0 240 -116 240 -381s-88 -425 -245 -425c-119 0 -180 120 -180 236c0 168 90 267 192 267c67 0 109 -44 122 -69h1v33c0 125 -57 241 -145 241c-51 0 -87 -25 -112 -48zM227 92h1c66 0 105 121 114 230c-9 32 -42 77 -94 77
c-60 0 -101 -85 -101 -176c0 -75 30 -131 80 -131z" />
    <glyph glyph-name="Delta" unicode="&#x2206;" horiz-adv-x="570" 
d="M25 0v70l198 651h132l189 -648v-73h-519zM138 95h291l-93 297c-13 57 -40 140 -50 185h-2c-7 -40 -33 -112 -47 -171z" />
    <glyph glyph-name="product" unicode="&#x220f;" horiz-adv-x="636" 
d="M610 599h-86v-697h-112v697h-189v-697h-112v697h-86v108h585v-108z" />
    <glyph glyph-name="summation" unicode="&#x2211;" horiz-adv-x="488" 
d="M470 -98h-447v79l213 326l-207 316v84h427v-99h-280v-3l185 -276l-207 -312v-4h316v-111z" />
    <glyph glyph-name="minus" unicode="&#x2212;" horiz-adv-x="600" 
d="M87 336h426c42 0 70 -24 70 -53s-28 -53 -70 -53h-426c-42 0 -70 24 -70 53s28 53 70 53z" />
    <glyph glyph-name="uni2215" unicode="&#x2215;" horiz-adv-x="167" 
d="M-104 22l303 697c7 15 20 26 43 26c24 0 35 -16 35 -31c0 -10 -2 -20 -6 -29l-303 -697c-7 -15 -20 -26 -43 -26c-24 0 -35 16 -35 31c0 10 2 20 6 29z" />
    <glyph glyph-name="uni2219" unicode="&#x2219;" 
d="M44 305c0 42 34 76 76 76s76 -34 76 -76s-34 -76 -76 -76s-76 34 -76 76z" />
    <glyph glyph-name="radical" unicode="&#x221a;" horiz-adv-x="529" 
d="M530 850l-196 -989h-90l-129 445l-66 -26l-18 68l153 61l87 -311c6 -35 14 -71 17 -93l2 -1c3 22 7 61 13 99l150 747h77z" />
    <glyph glyph-name="infinity" unicode="&#x221e;" horiz-adv-x="725" 
d="M681 293v-1c0 -102 -73 -163 -150 -163c-55 0 -104 24 -166 106c-49 -59 -98 -106 -174 -106c-77 0 -147 65 -147 158c0 95 67 161 155 161c69 0 119 -42 168 -104c39 44 86 104 169 104c82 0 145 -62 145 -155zM200 194h1c53 0 91 46 128 90c-39 53 -72 101 -133 101
c-55 0 -86 -43 -86 -99c0 -51 39 -92 90 -92zM530 385h-1c-57 0 -100 -61 -129 -95c56 -70 85 -96 133 -96c53 0 82 51 82 93c0 57 -34 98 -85 98z" />
    <glyph glyph-name="integral" unicode="&#x222b;" horiz-adv-x="370" 
d="M342 862l-12 -83c-8 5 -18 8 -30 8c-17 0 -33 -7 -45 -25c-19 -27 -24 -85 -24 -172c0 -164 12 -309 12 -490c0 -98 -12 -163 -33 -204c-24 -50 -73 -69 -118 -69c-29 0 -55 8 -67 15l14 86c9 -3 21 -9 38 -9c14 0 29 5 38 20c15 23 23 67 23 159c0 183 -12 331 -12 503
c0 117 15 181 54 226c25 30 67 46 107 46c23 0 45 -6 55 -11z" />
    <glyph glyph-name="approxequal" unicode="&#x2248;" horiz-adv-x="490" 
d="M413 444l41 -35c-25 -56 -68 -100 -121 -100c-35 0 -59 11 -99 37c-28 19 -49 33 -77 33c-40 0 -60 -35 -81 -69l-41 35c25 57 72 99 128 99c45 0 74 -23 96 -35c31 -19 51 -34 76 -34c35 0 55 29 78 69zM413 270l41 -35c-25 -56 -67 -100 -121 -100c-35 0 -59 12 -99 38
c-28 19 -49 33 -77 33c-40 0 -60 -35 -81 -70l-41 35c25 57 72 99 128 99c45 0 74 -22 96 -34c29 -18 50 -35 76 -35c35 0 55 29 78 69z" />
    <glyph glyph-name="notequal" unicode="&#x2260;" horiz-adv-x="490" 
d="M360 501l-35 -82h121v-69h-144l-54 -127h198v-68h-222l-43 -104l-53 20l36 84h-120v68h144l53 127h-197v69h221l43 102z" />
    <glyph glyph-name="lessequal" unicode="&#x2264;" horiz-adv-x="490" 
d="M443 101l-394 214v73l394 214v-81l-330 -168v-2l330 -168v-82zM447 -4h-402v69h402v-69z" />
    <glyph glyph-name="greaterequal" unicode="&#x2265;" horiz-adv-x="490" 
d="M51 602l394 -214v-73l-394 -214v82l329 168v2l-329 168v81zM447 -4h-401v69h401v-69z" />
    <glyph glyph-name="lozenge" unicode="&#x25ca;" horiz-adv-x="528" 
d="M482 353l-175 -398h-93l-167 398l174 399h93zM381 350l-97 236c-7 21 -13 47 -17 66h-3c-4 -20 -10 -44 -18 -66l-99 -230l98 -240c7 -22 13 -49 16 -63h4c3 15 11 49 16 60z" />
    </font>
</defs>
</svg>
